<svg width="141" height="40" viewBox="0 0 141 40" fill="none" xmlns="http://www.w3.org/2000/svg">
<path d="M20.9919 0C21.4192 0.0108315 21.9043 0.0321337 22.1969 0.432732C22.6541 1.05801 23.0707 1.99873 23.4142 2.71445C24.0083 3.94257 24.5908 5.17727 25.1621 6.41833L29.7281 16.0196C30.3633 17.3433 31.1289 19.0819 31.7878 20.3441C31.416 20.5275 30.2011 20.7891 29.7453 20.9271C28.2569 21.3771 26.7391 21.7368 25.2609 22.2234C24.6076 21.0546 24.0964 19.7943 23.4943 18.591C22.601 16.8065 21.8274 14.9078 20.9145 13.1395C18.6818 18.0512 16.353 22.8223 14.1786 27.7951C18.0443 26.0313 22.0087 24.5424 26.0476 23.3377C26.4334 23.2258 27.8664 22.7785 28.1553 22.7499L28.2266 22.7941C28.1143 23.0215 26.6674 24.0517 26.3784 24.2739C20.6139 28.6582 14.7838 32.9375 8.89091 37.1098C7.19362 38.3346 5.62243 40.0209 3.48299 39.9998C2.75597 39.9926 2.00635 39.9485 1.27924 39.911C0.8527 39.8946 0.426304 39.8751 0 39.853C0.572257 38.6246 1.45735 36.9856 2.08305 35.7495C3.13474 33.5068 4.29458 31.3129 5.38262 29.1065L8.54327 22.7583C8.97325 21.9027 9.37183 21.0295 9.81863 20.1825C9.95974 19.8533 10.25 19.3117 10.4189 19.0068C10.574 18.5578 11.5462 16.6266 11.8 16.1629C12.2668 15.3105 12.9053 13.8617 13.3661 13.0907C13.553 12.5882 14.2673 11.2941 14.5377 10.747L18.2675 3.2599C18.5648 2.66742 18.8808 2.05149 19.1736 1.45865C19.6728 0.447611 19.8526 0.0403966 20.9919 0Z" fill="url(#paint0_linear_2709_96)"/>
<path d="M34.8697 32.3705C36.5716 32.3438 38.2739 32.3387 39.9757 32.3551C40.0037 34.1302 40.007 35.9057 39.9851 37.6813C38.4365 37.6993 36.8884 37.7054 35.3399 37.6993C35.1558 37.7013 35.0552 37.7368 34.9158 37.6449L34.9061 37.5176C34.8222 36.0705 34.8674 33.8668 34.8697 32.3705Z" fill="url(#paint1_linear_2709_96)"/>
<path d="M23.3128 32.4481C23.3645 32.4009 23.3962 32.3783 23.4661 32.3788C25.0557 32.3875 26.6671 32.3541 28.2548 32.3731L28.2562 37.7019C26.826 37.6973 25.1214 37.6429 23.7178 37.6983C23.5654 37.7014 23.5108 37.6963 23.358 37.6773C23.2569 37.5064 23.3114 32.946 23.3128 32.4481Z" fill="url(#paint2_linear_2709_96)"/>
<path d="M30.6466 27.2497C31.5055 27.2323 32.3807 27.1897 33.2334 27.297C33.3155 28.8629 33.1999 30.6029 33.2684 32.2053C32.6332 32.2125 31.9976 32.2258 31.3624 32.2464C30.4472 32.2536 29.532 32.2433 28.6172 32.2166L28.626 27.2619C29.2994 27.2665 29.9733 27.2624 30.6466 27.2497Z" fill="url(#paint3_linear_2709_96)"/>
<path d="M32.8702 21.7409C34.3055 21.7044 35.8447 21.7355 37.2936 21.7263C37.2679 23.2456 37.2465 25.3129 37.2814 26.8139C35.8443 26.8153 34.3353 26.7975 32.9056 26.8697C32.8385 25.2527 32.8716 23.3793 32.8702 21.7409Z" fill="url(#paint4_linear_2709_96)"/>
<path d="M3.70699 39.9251H0.0703125L2.33095 35.2707C3.70699 33.6471 10.2137 29.7721 13.8307 27.9104C17.4477 26.0486 25.2486 23.6168 28.5249 22.7148L6.7048 38.8968C5.13218 39.7627 4.051 39.9431 3.70699 39.9251Z" fill="url(#paint5_linear_2709_96)"/>
<mask id="path-7-outside-1_2709_96" maskUnits="userSpaceOnUse" x="51" y="10" width="87" height="19" fill="black">
<rect fill="white" x="51" y="10" width="87" height="19"/>
<path d="M63.736 24.28H56.44L55.096 28H52.792L58.84 11.368H61.36L67.384 28H65.08L63.736 24.28ZM63.112 22.504L60.088 14.056L57.064 22.504H63.112ZM82.4039 14.848V28H80.2199V26.056C79.8039 26.728 79.2199 27.256 78.4679 27.64C77.7319 28.008 76.9159 28.192 76.0199 28.192C74.9959 28.192 74.0759 27.984 73.2599 27.568C72.4439 27.136 71.7959 26.496 71.3159 25.648C70.8519 24.8 70.6199 23.768 70.6199 22.552V14.848H72.7799V22.264C72.7799 23.56 73.1079 24.56 73.7639 25.264C74.4199 25.952 75.3159 26.296 76.4519 26.296C77.6199 26.296 78.5399 25.936 79.2119 25.216C79.8839 24.496 80.2199 23.448 80.2199 22.072V14.848H82.4039ZM85.9954 21.4C85.9954 20.04 86.2674 18.856 86.8114 17.848C87.3554 16.824 88.1074 16.032 89.0674 15.472C90.0434 14.912 91.1554 14.632 92.4034 14.632C94.0194 14.632 95.3474 15.024 96.3874 15.808C97.4434 16.592 98.1394 17.68 98.4754 19.072H96.1234C95.8994 18.272 95.4594 17.64 94.8034 17.176C94.1634 16.712 93.3634 16.48 92.4034 16.48C91.1554 16.48 90.1474 16.912 89.3794 17.776C88.6114 18.624 88.2274 19.832 88.2274 21.4C88.2274 22.984 88.6114 24.208 89.3794 25.072C90.1474 25.936 91.1554 26.368 92.4034 26.368C93.3634 26.368 94.1634 26.144 94.8034 25.696C95.4434 25.248 95.8834 24.608 96.1234 23.776H98.4754C98.1234 25.12 97.4194 26.2 96.3634 27.016C95.3074 27.816 93.9874 28.216 92.4034 28.216C91.1554 28.216 90.0434 27.936 89.0674 27.376C88.1074 26.816 87.3554 26.024 86.8114 25C86.2674 23.976 85.9954 22.776 85.9954 21.4ZM104.774 16.648V24.4C104.774 25.04 104.91 25.496 105.182 25.768C105.454 26.024 105.926 26.152 106.598 26.152H108.206V28H106.238C105.022 28 104.11 27.72 103.502 27.16C102.894 26.6 102.59 25.68 102.59 24.4V16.648H100.886V14.848H102.59V11.536H104.774V14.848H108.206V16.648H104.774ZM123.236 14.848V28H121.052V26.056C120.636 26.728 120.052 27.256 119.3 27.64C118.564 28.008 117.748 28.192 116.852 28.192C115.828 28.192 114.908 27.984 114.092 27.568C113.276 27.136 112.628 26.496 112.148 25.648C111.684 24.8 111.452 23.768 111.452 22.552V14.848H113.612V22.264C113.612 23.56 113.94 24.56 114.596 25.264C115.252 25.952 116.148 26.296 117.284 26.296C118.452 26.296 119.372 25.936 120.044 25.216C120.716 24.496 121.052 23.448 121.052 22.072V14.848H123.236ZM132.299 28.216C131.291 28.216 130.387 28.048 129.587 27.712C128.787 27.36 128.155 26.88 127.691 26.272C127.227 25.648 126.971 24.936 126.923 24.136H129.179C129.243 24.792 129.547 25.328 130.091 25.744C130.651 26.16 131.379 26.368 132.275 26.368C133.107 26.368 133.763 26.184 134.243 25.816C134.723 25.448 134.963 24.984 134.963 24.424C134.963 23.848 134.707 23.424 134.195 23.152C133.683 22.864 132.891 22.584 131.819 22.312C130.843 22.056 130.043 21.8 129.419 21.544C128.811 21.272 128.283 20.88 127.835 20.368C127.403 19.84 127.187 19.152 127.187 18.304C127.187 17.632 127.387 17.016 127.787 16.456C128.187 15.896 128.755 15.456 129.491 15.136C130.227 14.8 131.067 14.632 132.011 14.632C133.467 14.632 134.643 15 135.539 15.736C136.435 16.472 136.915 17.48 136.979 18.76H134.795C134.747 18.072 134.467 17.52 133.955 17.104C133.459 16.688 132.787 16.48 131.939 16.48C131.155 16.48 130.531 16.648 130.067 16.984C129.603 17.32 129.371 17.76 129.371 18.304C129.371 18.736 129.507 19.096 129.779 19.384C130.067 19.656 130.419 19.88 130.835 20.056C131.267 20.216 131.859 20.4 132.611 20.608C133.555 20.864 134.323 21.12 134.915 21.376C135.507 21.616 136.011 21.984 136.427 22.48C136.859 22.976 137.083 23.624 137.099 24.424C137.099 25.144 136.899 25.792 136.499 26.368C136.099 26.944 135.531 27.4 134.795 27.736C134.075 28.056 133.243 28.216 132.299 28.216Z"/>
</mask>
<path d="M63.736 24.28H56.44L55.096 28H52.792L58.84 11.368H61.36L67.384 28H65.08L63.736 24.28ZM63.112 22.504L60.088 14.056L57.064 22.504H63.112ZM82.4039 14.848V28H80.2199V26.056C79.8039 26.728 79.2199 27.256 78.4679 27.64C77.7319 28.008 76.9159 28.192 76.0199 28.192C74.9959 28.192 74.0759 27.984 73.2599 27.568C72.4439 27.136 71.7959 26.496 71.3159 25.648C70.8519 24.8 70.6199 23.768 70.6199 22.552V14.848H72.7799V22.264C72.7799 23.56 73.1079 24.56 73.7639 25.264C74.4199 25.952 75.3159 26.296 76.4519 26.296C77.6199 26.296 78.5399 25.936 79.2119 25.216C79.8839 24.496 80.2199 23.448 80.2199 22.072V14.848H82.4039ZM85.9954 21.4C85.9954 20.04 86.2674 18.856 86.8114 17.848C87.3554 16.824 88.1074 16.032 89.0674 15.472C90.0434 14.912 91.1554 14.632 92.4034 14.632C94.0194 14.632 95.3474 15.024 96.3874 15.808C97.4434 16.592 98.1394 17.68 98.4754 19.072H96.1234C95.8994 18.272 95.4594 17.64 94.8034 17.176C94.1634 16.712 93.3634 16.48 92.4034 16.48C91.1554 16.48 90.1474 16.912 89.3794 17.776C88.6114 18.624 88.2274 19.832 88.2274 21.4C88.2274 22.984 88.6114 24.208 89.3794 25.072C90.1474 25.936 91.1554 26.368 92.4034 26.368C93.3634 26.368 94.1634 26.144 94.8034 25.696C95.4434 25.248 95.8834 24.608 96.1234 23.776H98.4754C98.1234 25.12 97.4194 26.2 96.3634 27.016C95.3074 27.816 93.9874 28.216 92.4034 28.216C91.1554 28.216 90.0434 27.936 89.0674 27.376C88.1074 26.816 87.3554 26.024 86.8114 25C86.2674 23.976 85.9954 22.776 85.9954 21.4ZM104.774 16.648V24.4C104.774 25.04 104.91 25.496 105.182 25.768C105.454 26.024 105.926 26.152 106.598 26.152H108.206V28H106.238C105.022 28 104.11 27.72 103.502 27.16C102.894 26.6 102.59 25.68 102.59 24.4V16.648H100.886V14.848H102.59V11.536H104.774V14.848H108.206V16.648H104.774ZM123.236 14.848V28H121.052V26.056C120.636 26.728 120.052 27.256 119.3 27.64C118.564 28.008 117.748 28.192 116.852 28.192C115.828 28.192 114.908 27.984 114.092 27.568C113.276 27.136 112.628 26.496 112.148 25.648C111.684 24.8 111.452 23.768 111.452 22.552V14.848H113.612V22.264C113.612 23.56 113.94 24.56 114.596 25.264C115.252 25.952 116.148 26.296 117.284 26.296C118.452 26.296 119.372 25.936 120.044 25.216C120.716 24.496 121.052 23.448 121.052 22.072V14.848H123.236ZM132.299 28.216C131.291 28.216 130.387 28.048 129.587 27.712C128.787 27.36 128.155 26.88 127.691 26.272C127.227 25.648 126.971 24.936 126.923 24.136H129.179C129.243 24.792 129.547 25.328 130.091 25.744C130.651 26.16 131.379 26.368 132.275 26.368C133.107 26.368 133.763 26.184 134.243 25.816C134.723 25.448 134.963 24.984 134.963 24.424C134.963 23.848 134.707 23.424 134.195 23.152C133.683 22.864 132.891 22.584 131.819 22.312C130.843 22.056 130.043 21.8 129.419 21.544C128.811 21.272 128.283 20.88 127.835 20.368C127.403 19.84 127.187 19.152 127.187 18.304C127.187 17.632 127.387 17.016 127.787 16.456C128.187 15.896 128.755 15.456 129.491 15.136C130.227 14.8 131.067 14.632 132.011 14.632C133.467 14.632 134.643 15 135.539 15.736C136.435 16.472 136.915 17.48 136.979 18.76H134.795C134.747 18.072 134.467 17.52 133.955 17.104C133.459 16.688 132.787 16.48 131.939 16.48C131.155 16.48 130.531 16.648 130.067 16.984C129.603 17.32 129.371 17.76 129.371 18.304C129.371 18.736 129.507 19.096 129.779 19.384C130.067 19.656 130.419 19.88 130.835 20.056C131.267 20.216 131.859 20.4 132.611 20.608C133.555 20.864 134.323 21.12 134.915 21.376C135.507 21.616 136.011 21.984 136.427 22.48C136.859 22.976 137.083 23.624 137.099 24.424C137.099 25.144 136.899 25.792 136.499 26.368C136.099 26.944 135.531 27.4 134.795 27.736C134.075 28.056 133.243 28.216 132.299 28.216Z" fill="#262626"/>
<path d="M63.736 24.28L64.3003 24.0761L64.1572 23.68H63.736V24.28ZM56.44 24.28V23.68H56.0188L55.8757 24.0761L56.44 24.28ZM55.096 28V28.6H55.5172L55.6603 28.2039L55.096 28ZM52.792 28L52.2281 27.795L51.9354 28.6H52.792V28ZM58.84 11.368V10.768H58.4197L58.2761 11.163L58.84 11.368ZM61.36 11.368L61.9241 11.1637L61.7808 10.768H61.36V11.368ZM67.384 28V28.6H68.2395L67.9481 27.7957L67.384 28ZM65.08 28L64.5157 28.2039L64.6588 28.6H65.08V28ZM63.112 22.504V23.104H63.9641L63.6769 22.3018L63.112 22.504ZM60.088 14.056L60.6529 13.8538L60.088 12.2757L59.5231 13.8538L60.088 14.056ZM57.064 22.504L56.4991 22.3018L56.2119 23.104H57.064V22.504ZM63.736 24.28V23.68H56.44V24.28V24.88H63.736V24.28ZM56.44 24.28L55.8757 24.0761L54.5317 27.7961L55.096 28L55.6603 28.2039L57.0043 24.4839L56.44 24.28ZM55.096 28V27.4H52.792V28V28.6H55.096V28ZM52.792 28L53.3559 28.205L59.4039 11.573L58.84 11.368L58.2761 11.163L52.2281 27.795L52.792 28ZM58.84 11.368V11.968H61.36V11.368V10.768H58.84V11.368ZM61.36 11.368L60.7959 11.5723L66.8199 28.2043L67.384 28L67.9481 27.7957L61.9241 11.1637L61.36 11.368ZM67.384 28V27.4H65.08V28V28.6H67.384V28ZM65.08 28L65.6443 27.7961L64.3003 24.0761L63.736 24.28L63.1717 24.4839L64.5157 28.2039L65.08 28ZM63.112 22.504L63.6769 22.3018L60.6529 13.8538L60.088 14.056L59.5231 14.2582L62.5471 22.7062L63.112 22.504ZM60.088 14.056L59.5231 13.8538L56.4991 22.3018L57.064 22.504L57.6289 22.7062L60.6529 14.2582L60.088 14.056ZM57.064 22.504V23.104H63.112V22.504V21.904H57.064V22.504ZM82.4039 14.848H83.0039V14.248H82.4039V14.848ZM82.4039 28V28.6H83.0039V28H82.4039ZM80.2199 28H79.6199V28.6H80.2199V28ZM80.2199 26.056H80.8199V23.9469L79.7097 25.7402L80.2199 26.056ZM78.4679 27.64L78.7362 28.1767L78.7407 28.1744L78.4679 27.64ZM73.2599 27.568L72.9791 28.0983L72.9874 28.1025L73.2599 27.568ZM71.3159 25.648L70.7895 25.936L70.7937 25.9436L71.3159 25.648ZM70.6199 14.848V14.248H70.0199V14.848H70.6199ZM72.7799 14.848H73.3799V14.248H72.7799V14.848ZM73.7639 25.264L73.3249 25.6731L73.3296 25.678L73.7639 25.264ZM79.2119 25.216L78.7732 24.8066V24.8066L79.2119 25.216ZM80.2199 14.848V14.248H79.6199V14.848H80.2199ZM82.4039 14.848H81.8039V28H82.4039H83.0039V14.848H82.4039ZM82.4039 28V27.4H80.2199V28V28.6H82.4039V28ZM80.2199 28H80.8199V26.056H80.2199H79.6199V28H80.2199ZM80.2199 26.056L79.7097 25.7402C79.3553 26.3126 78.8564 26.7679 78.195 27.1056L78.4679 27.64L78.7407 28.1744C79.5834 27.7441 80.2524 27.1434 80.73 26.3718L80.2199 26.056ZM78.4679 27.64L78.1995 27.1033C77.5541 27.4261 76.8312 27.592 76.0199 27.592V28.192V28.792C77.0006 28.792 77.9097 28.5899 78.7362 28.1767L78.4679 27.64ZM76.0199 28.192V27.592C75.0793 27.592 74.2545 27.4016 73.5324 27.0335L73.2599 27.568L72.9874 28.1025C73.8973 28.5664 74.9125 28.792 76.0199 28.792V28.192ZM73.2599 27.568L73.5406 27.0377C72.8316 26.6623 72.2649 26.1066 71.838 25.3524L71.3159 25.648L70.7937 25.9436C71.3269 26.8854 72.0562 27.6097 72.9791 28.0983L73.2599 27.568ZM71.3159 25.648L71.8422 25.36C71.4375 24.6202 71.2199 23.6928 71.2199 22.552H70.6199H70.0199C70.0199 23.8432 70.2663 24.9798 70.7895 25.936L71.3159 25.648ZM70.6199 22.552H71.2199V14.848H70.6199H70.0199V22.552H70.6199ZM70.6199 14.848V15.448H72.7799V14.848V14.248H70.6199V14.848ZM72.7799 14.848H72.1799V22.264H72.7799H73.3799V14.848H72.7799ZM72.7799 22.264H72.1799C72.1799 23.6582 72.5339 24.8241 73.3249 25.673L73.7639 25.264L74.2028 24.855C73.6819 24.2959 73.3799 23.4618 73.3799 22.264H72.7799ZM73.7639 25.264L73.3296 25.678C74.1207 26.5077 75.1863 26.896 76.4519 26.896V26.296V25.696C75.4454 25.696 74.7191 25.3963 74.1981 24.85L73.7639 25.264ZM76.4519 26.296V26.896C77.7526 26.896 78.844 26.4895 79.6505 25.6254L79.2119 25.216L78.7732 24.8066C78.2358 25.3825 77.4872 25.696 76.4519 25.696V26.296ZM79.2119 25.216L79.6505 25.6254C80.4613 24.7567 80.8199 23.5393 80.8199 22.072H80.2199H79.6199C79.6199 23.3567 79.3065 24.2353 78.7732 24.8066L79.2119 25.216ZM80.2199 22.072H80.8199V14.848H80.2199H79.6199V22.072H80.2199ZM80.2199 14.848V15.448H82.4039V14.848V14.248H80.2199V14.848ZM86.8114 17.848L87.3395 18.133L87.3413 18.1295L86.8114 17.848ZM89.0674 15.472L88.7688 14.9516L88.7651 14.9537L89.0674 15.472ZM96.3874 15.808L96.0262 16.2871L96.0298 16.2897L96.3874 15.808ZM98.4754 19.072V19.672H99.2375L99.0587 18.9312L98.4754 19.072ZM96.1234 19.072L95.5457 19.2338L95.6684 19.672H96.1234V19.072ZM94.8034 17.176L94.4512 17.6618L94.457 17.6658L94.8034 17.176ZM89.3794 17.776L89.8242 18.1788L89.8279 18.1746L89.3794 17.776ZM89.3794 25.072L89.8279 24.6734V24.6734L89.3794 25.072ZM94.8034 25.696L95.1475 26.1875V26.1875L94.8034 25.696ZM96.1234 23.776V23.176H95.6721L95.5469 23.6097L96.1234 23.776ZM98.4754 23.776L99.0559 23.928L99.2528 23.176H98.4754V23.776ZM96.3634 27.016L96.7258 27.4943L96.7303 27.4908L96.3634 27.016ZM89.0674 27.376L88.7651 27.8943L88.7688 27.8964L89.0674 27.376ZM86.8114 25L86.2816 25.2815V25.2815L86.8114 25ZM85.9954 21.4H86.5954C86.5954 20.1209 86.8508 19.0384 87.3395 18.133L86.8114 17.848L86.2834 17.563C85.6841 18.6736 85.3954 19.9591 85.3954 21.4H85.9954ZM86.8114 17.848L87.3413 18.1295C87.8353 17.1996 88.5104 16.4915 89.3698 15.9903L89.0674 15.472L88.7651 14.9537C87.7044 15.5725 86.8755 16.4484 86.2816 17.5665L86.8114 17.848ZM89.0674 15.472L89.366 15.9924C90.2415 15.4901 91.2485 15.232 92.4034 15.232V14.632V14.032C91.0624 14.032 89.8454 14.3339 88.7688 14.9516L89.0674 15.472ZM92.4034 14.632V15.232C93.9211 15.232 95.1132 15.5988 96.0263 16.2871L96.3874 15.808L96.7486 15.3289C95.5816 14.4492 94.1178 14.032 92.4034 14.032V14.632ZM96.3874 15.808L96.0298 16.2897C96.9627 16.9824 97.586 17.9443 97.8922 19.2128L98.4754 19.072L99.0587 18.9312C98.6929 17.4157 97.9242 16.2016 96.7451 15.3263L96.3874 15.808ZM98.4754 19.072V18.472H96.1234V19.072V19.672H98.4754V19.072ZM96.1234 19.072L96.7012 18.9102C96.4414 17.9824 95.9225 17.2326 95.1499 16.6861L94.8034 17.176L94.457 17.6658C94.9964 18.0474 95.3574 18.5616 95.5457 19.2338L96.1234 19.072ZM94.8034 17.176L95.1556 16.6902C94.3929 16.1372 93.4623 15.88 92.4034 15.88V16.48V17.08C93.2646 17.08 93.934 17.2868 94.4513 17.6618L94.8034 17.176ZM92.4034 16.48V15.88C90.9994 15.88 89.8227 16.3742 88.931 17.3774L89.3794 17.776L89.8279 18.1746C90.4722 17.4498 91.3115 17.08 92.4034 17.08V16.48ZM89.3794 17.776L88.9347 17.3732C88.0349 18.3668 87.6274 19.7387 87.6274 21.4H88.2274H88.8274C88.8274 19.9253 89.188 18.8812 89.8242 18.1788L89.3794 17.776ZM88.2274 21.4H87.6274C87.6274 23.0762 88.0343 24.4618 88.931 25.4706L89.3794 25.072L89.8279 24.6734C89.1886 23.9542 88.8274 22.8918 88.8274 21.4H88.2274ZM89.3794 25.072L88.931 25.4706C89.8227 26.4738 90.9994 26.968 92.4034 26.968V26.368V25.768C91.3115 25.768 90.4722 25.3982 89.8279 24.6734L89.3794 25.072ZM92.4034 26.368V26.968C93.458 26.968 94.3856 26.7209 95.1475 26.1875L94.8034 25.696L94.4594 25.2045C93.9413 25.5671 93.2689 25.768 92.4034 25.768V26.368ZM94.8034 25.696L95.1475 26.1875C95.9122 25.6523 96.4263 24.8909 96.6999 23.9423L96.1234 23.776L95.5469 23.6097C95.3406 24.3251 94.9747 24.8437 94.4594 25.2045L94.8034 25.696ZM96.1234 23.776V24.376H98.4754V23.776V23.176H96.1234V23.776ZM98.4754 23.776L97.895 23.624C97.5751 24.8454 96.9431 25.8098 95.9966 26.5412L96.3634 27.016L96.7303 27.4908C97.8957 26.5902 98.6718 25.3946 99.0559 23.928L98.4754 23.776ZM96.3634 27.016L96.0011 26.5377C95.0686 27.2442 93.883 27.616 92.4034 27.616V28.216V28.816C94.0919 28.816 95.5462 28.3878 96.7257 27.4943L96.3634 27.016ZM92.4034 28.216V27.616C91.2485 27.616 90.2415 27.3579 89.366 26.8556L89.0674 27.376L88.7688 27.8964C89.8454 28.5141 91.0624 28.816 92.4034 28.816V28.216ZM89.0674 27.376L89.3698 26.8577C88.5104 26.3565 87.8353 25.6484 87.3413 24.7185L86.8114 25L86.2816 25.2815C86.8755 26.3996 87.7044 27.2755 88.7651 27.8943L89.0674 27.376ZM86.8114 25L87.3413 24.7185C86.8512 23.796 86.5954 22.6961 86.5954 21.4H85.9954H85.3954C85.3954 22.8559 85.6836 24.156 86.2816 25.2815L86.8114 25ZM104.774 16.648V16.048H104.174V16.648H104.774ZM105.182 25.768L104.757 26.1923L104.764 26.1987L104.77 26.2049L105.182 25.768ZM108.206 26.152H108.806V25.552H108.206V26.152ZM108.206 28V28.6H108.806V28H108.206ZM102.59 16.648H103.19V16.048H102.59V16.648ZM100.886 16.648H100.286V17.248H100.886V16.648ZM100.886 14.848V14.248H100.286V14.848H100.886ZM102.59 14.848V15.448H103.19V14.848H102.59ZM102.59 11.536V10.936H101.99V11.536H102.59ZM104.774 11.536H105.374V10.936H104.774V11.536ZM104.774 14.848H104.174V15.448H104.774V14.848ZM108.206 14.848H108.806V14.248H108.206V14.848ZM108.206 16.648V17.248H108.806V16.648H108.206ZM104.774 16.648H104.174V24.4H104.774H105.374V16.648H104.774ZM104.774 24.4H104.174C104.174 25.0992 104.318 25.7527 104.757 26.1923L105.182 25.768L105.606 25.3437C105.501 25.2393 105.374 24.9808 105.374 24.4H104.774ZM105.182 25.768L104.77 26.2049C105.214 26.6226 105.883 26.752 106.598 26.752V26.152V25.552C105.968 25.552 105.693 25.4254 105.593 25.3311L105.182 25.768ZM106.598 26.152V26.752H108.206V26.152V25.552H106.598V26.152ZM108.206 26.152H107.606V28H108.206H108.806V26.152H108.206ZM108.206 28V27.4H106.238V28V28.6H108.206V28ZM106.238 28V27.4C105.102 27.4 104.363 27.1376 103.908 26.7187L103.502 27.16L103.095 27.6013C103.856 28.3024 104.941 28.6 106.238 28.6V28ZM103.502 27.16L103.908 26.7187C103.477 26.3219 103.19 25.6032 103.19 24.4H102.59H101.99C101.99 25.7568 102.31 26.8781 103.095 27.6013L103.502 27.16ZM102.59 24.4H103.19V16.648H102.59H101.99V24.4H102.59ZM102.59 16.648V16.048H100.886V16.648V17.248H102.59V16.648ZM100.886 16.648H101.486V14.848H100.886H100.286V16.648H100.886ZM100.886 14.848V15.448H102.59V14.848V14.248H100.886V14.848ZM102.59 14.848H103.19V11.536H102.59H101.99V14.848H102.59ZM102.59 11.536V12.136H104.774V11.536V10.936H102.59V11.536ZM104.774 11.536H104.174V14.848H104.774H105.374V11.536H104.774ZM104.774 14.848V15.448H108.206V14.848V14.248H104.774V14.848ZM108.206 14.848H107.606V16.648H108.206H108.806V14.848H108.206ZM108.206 16.648V16.048H104.774V16.648V17.248H108.206V16.648ZM123.236 14.848H123.836V14.248H123.236V14.848ZM123.236 28V28.6H123.836V28H123.236ZM121.052 28H120.452V28.6H121.052V28ZM121.052 26.056H121.652V23.9469L120.542 25.7402L121.052 26.056ZM119.3 27.64L119.568 28.1767L119.573 28.1744L119.3 27.64ZM114.092 27.568L113.811 28.0983L113.819 28.1025L114.092 27.568ZM112.148 25.648L111.621 25.936L111.626 25.9436L112.148 25.648ZM111.452 14.848V14.248H110.852V14.848H111.452ZM113.612 14.848H114.212V14.248H113.612V14.848ZM114.596 25.264L114.157 25.6731L114.162 25.678L114.596 25.264ZM120.044 25.216L119.605 24.8066V24.8066L120.044 25.216ZM121.052 14.848V14.248H120.452V14.848H121.052ZM123.236 14.848H122.636V28H123.236H123.836V14.848H123.236ZM123.236 28V27.4H121.052V28V28.6H123.236V28ZM121.052 28H121.652V26.056H121.052H120.452V28H121.052ZM121.052 26.056L120.542 25.7402C120.187 26.3126 119.688 26.7679 119.027 27.1056L119.3 27.64L119.573 28.1744C120.415 27.7441 121.084 27.1434 121.562 26.3718L121.052 26.056ZM119.3 27.64L119.031 27.1033C118.386 27.4261 117.663 27.592 116.852 27.592V28.192V28.792C117.832 28.792 118.742 28.5899 119.568 28.1767L119.3 27.64ZM116.852 28.192V27.592C115.911 27.592 115.086 27.4016 114.364 27.0335L114.092 27.568L113.819 28.1025C114.729 28.5664 115.744 28.792 116.852 28.792V28.192ZM114.092 27.568L114.372 27.0377C113.663 26.6623 113.097 26.1066 112.67 25.3524L112.148 25.648L111.626 25.9436C112.159 26.8854 112.888 27.6097 113.811 28.0983L114.092 27.568ZM112.148 25.648L112.674 25.36C112.269 24.6202 112.052 23.6928 112.052 22.552H111.452H110.852C110.852 23.8432 111.098 24.9798 111.621 25.936L112.148 25.648ZM111.452 22.552H112.052V14.848H111.452H110.852V22.552H111.452ZM111.452 14.848V15.448H113.612V14.848V14.248H111.452V14.848ZM113.612 14.848H113.012V22.264H113.612H114.212V14.848H113.612ZM113.612 22.264H113.012C113.012 23.6582 113.366 24.8241 114.157 25.673L114.596 25.264L115.035 24.855C114.514 24.2959 114.212 23.4618 114.212 22.264H113.612ZM114.596 25.264L114.162 25.678C114.953 26.5077 116.018 26.896 117.284 26.896V26.296V25.696C116.277 25.696 115.551 25.3963 115.03 24.85L114.596 25.264ZM117.284 26.296V26.896C118.584 26.896 119.676 26.4895 120.482 25.6254L120.044 25.216L119.605 24.8066C119.068 25.3825 118.319 25.696 117.284 25.696V26.296ZM120.044 25.216L120.482 25.6254C121.293 24.7567 121.652 23.5393 121.652 22.072H121.052H120.452C120.452 23.3567 120.138 24.2353 119.605 24.8066L120.044 25.216ZM121.052 22.072H121.652V14.848H121.052H120.452V22.072H121.052ZM121.052 14.848V15.448H123.236V14.848V14.248H121.052V14.848ZM129.587 27.712L129.346 28.2613L129.355 28.2652L129.587 27.712ZM127.691 26.272L127.21 26.63L127.214 26.636L127.691 26.272ZM126.923 24.136V23.536H126.286L126.324 24.1719L126.923 24.136ZM129.179 24.136L129.776 24.0777L129.724 23.536H129.179V24.136ZM130.091 25.744L129.727 26.2207L129.734 26.2256L130.091 25.744ZM134.195 23.152L133.901 23.6749L133.907 23.6785L133.914 23.6819L134.195 23.152ZM131.819 22.312L131.667 22.8924L131.672 22.8936L131.819 22.312ZM129.419 21.544L129.174 22.0917L129.183 22.0955L129.192 22.0991L129.419 21.544ZM127.835 20.368L127.371 20.7479L127.377 20.7556L127.384 20.7631L127.835 20.368ZM127.787 16.456L127.299 16.1073V16.1073L127.787 16.456ZM129.491 15.136L129.731 15.6863L129.74 15.6818L129.491 15.136ZM136.979 18.76V19.36H137.61L137.579 18.73L136.979 18.76ZM134.795 18.76L134.197 18.8018L134.236 19.36H134.795V18.76ZM133.955 17.104L133.57 17.5638L133.577 17.5697L133.955 17.104ZM130.067 16.984L129.715 16.498V16.498L130.067 16.984ZM129.779 19.384L129.343 19.796L129.355 19.8084L129.367 19.8202L129.779 19.384ZM130.835 20.056L130.602 20.6086L130.614 20.6139L130.627 20.6186L130.835 20.056ZM132.611 20.608L132.451 21.1863L132.454 21.1871L132.611 20.608ZM134.915 21.376L134.677 21.9269L134.69 21.932L134.915 21.376ZM136.427 22.48L135.968 22.8656L135.975 22.8741L136.427 22.48ZM137.099 24.424H137.699L137.699 24.412L137.099 24.424ZM136.499 26.368L136.006 26.0258V26.0258L136.499 26.368ZM134.795 27.736L135.039 28.2843L135.044 28.2818L134.795 27.736ZM132.299 28.216V27.616C131.358 27.616 130.535 27.4593 129.82 27.1588L129.587 27.712L129.355 28.2652C130.239 28.6367 131.224 28.816 132.299 28.816V28.216ZM129.587 27.712L129.829 27.1628C129.108 26.8458 128.562 26.4245 128.168 25.908L127.691 26.272L127.214 26.636C127.748 27.3355 128.466 27.8742 129.346 28.2612L129.587 27.712ZM127.691 26.272L128.173 25.914C127.781 25.3866 127.563 24.7873 127.522 24.1001L126.923 24.136L126.324 24.1719C126.379 25.0847 126.674 25.9094 127.21 26.63L127.691 26.272ZM126.923 24.136V24.736H129.179V24.136V23.536H126.923V24.136ZM129.179 24.136L128.582 24.1943C128.663 25.0231 129.056 25.7079 129.727 26.2206L130.091 25.744L130.456 25.2674C130.038 24.9481 129.824 24.5609 129.776 24.0777L129.179 24.136ZM130.091 25.744L129.734 26.2256C130.423 26.7379 131.287 26.968 132.275 26.968V26.368V25.768C131.471 25.768 130.88 25.5821 130.449 25.2624L130.091 25.744ZM132.275 26.368V26.968C133.19 26.968 133.991 26.7658 134.608 26.2922L134.243 25.816L133.878 25.3398C133.536 25.6022 133.024 25.768 132.275 25.768V26.368ZM134.243 25.816L134.608 26.2922C135.223 25.8211 135.563 25.1872 135.563 24.424H134.963H134.363C134.363 24.7808 134.224 25.0749 133.878 25.3398L134.243 25.816ZM134.963 24.424H135.563C135.563 24.0448 135.478 23.6838 135.285 23.3639C135.092 23.0442 134.812 22.8003 134.477 22.6221L134.195 23.152L133.914 23.6819C134.091 23.7757 134.195 23.8798 134.258 23.9841C134.321 24.0882 134.363 24.2272 134.363 24.424H134.963ZM134.195 23.152L134.489 22.6291C133.907 22.3015 133.053 22.0061 131.967 21.7304L131.819 22.312L131.672 22.8936C132.729 23.1619 133.459 23.4265 133.901 23.6749L134.195 23.152ZM131.819 22.312L131.972 21.7316C131.01 21.4794 130.238 21.2312 129.647 20.9889L129.419 21.544L129.192 22.0991C129.849 22.3688 130.677 22.6326 131.667 22.8924L131.819 22.312ZM129.419 21.544L129.664 20.9963C129.137 20.7604 128.679 20.4212 128.287 19.9729L127.835 20.368L127.384 20.7631C127.888 21.3388 128.486 21.7836 129.174 22.0917L129.419 21.544ZM127.835 20.368L128.3 19.9881C127.975 19.5913 127.787 19.0481 127.787 18.304H127.187H126.587C126.587 19.2559 126.832 20.0887 127.371 20.7479L127.835 20.368ZM127.187 18.304H127.787C127.787 17.7602 127.946 17.2656 128.276 16.8047L127.787 16.456L127.299 16.1073C126.828 16.7664 126.587 17.5038 126.587 18.304H127.187ZM127.787 16.456L128.276 16.8047C128.602 16.347 129.077 15.9702 129.731 15.6862L129.491 15.136L129.252 14.5858C128.433 14.9418 127.772 15.445 127.299 16.1073L127.787 16.456ZM129.491 15.136L129.74 15.6818C130.386 15.387 131.139 15.232 132.011 15.232V14.632V14.032C130.996 14.032 130.068 14.213 129.242 14.5902L129.491 15.136ZM132.011 14.632V15.232C133.365 15.232 134.395 15.5724 135.158 16.1996L135.539 15.736L135.92 15.2724C134.892 14.4276 133.57 14.032 132.011 14.032V14.632ZM135.539 15.736L135.158 16.1996C135.909 16.8163 136.324 17.659 136.38 18.79L136.979 18.76L137.579 18.73C137.507 17.301 136.961 16.1277 135.92 15.2724L135.539 15.736ZM136.979 18.76V18.16H134.795V18.76V19.36H136.979V18.76ZM134.795 18.76L135.394 18.7182C135.335 17.873 134.981 17.1643 134.334 16.6383L133.955 17.104L133.577 17.5697C133.954 17.8757 134.16 18.271 134.197 18.8018L134.795 18.76ZM133.955 17.104L134.341 16.6443C133.707 16.1128 132.884 15.88 131.939 15.88V16.48V17.08C132.691 17.08 133.211 17.2632 133.57 17.5637L133.955 17.104ZM131.939 16.48V15.88C131.075 15.88 130.313 16.065 129.715 16.498L130.067 16.984L130.419 17.47C130.749 17.231 131.236 17.08 131.939 17.08V16.48ZM130.067 16.984L129.715 16.498C129.105 16.9398 128.771 17.5559 128.771 18.304H129.371H129.971C129.971 17.9641 130.101 17.7002 130.419 17.47L130.067 16.984ZM129.371 18.304H128.771C128.771 18.8741 128.956 19.3861 129.343 19.796L129.779 19.384L130.216 18.972C130.059 18.8059 129.971 18.5979 129.971 18.304H129.371ZM129.779 19.384L129.367 19.8202C129.714 20.1477 130.129 20.4086 130.602 20.6086L130.835 20.056L131.069 19.5034C130.71 19.3514 130.421 19.1643 130.191 18.9478L129.779 19.384ZM130.835 20.056L130.627 20.6186C131.082 20.7872 131.693 20.9764 132.451 21.1863L132.611 20.608L132.771 20.0297C132.026 19.8236 131.453 19.6448 131.044 19.4934L130.835 20.056ZM132.611 20.608L132.454 21.1871C133.383 21.439 134.121 21.6863 134.677 21.9267L134.915 21.376L135.153 20.8253C134.525 20.5537 133.727 20.289 132.768 20.0289L132.611 20.608ZM134.915 21.376L134.69 21.932C135.19 22.1347 135.614 22.4436 135.968 22.8656L136.427 22.48L136.887 22.0944C136.409 21.5244 135.825 21.0973 135.141 20.82L134.915 21.376ZM136.427 22.48L135.975 22.8741C136.296 23.2423 136.486 23.7451 136.499 24.436L137.099 24.424L137.699 24.412C137.681 23.5029 137.423 22.7097 136.88 22.0859L136.427 22.48ZM137.099 24.424H136.499C136.499 25.0251 136.335 25.5531 136.006 26.0258L136.499 26.368L136.992 26.7102C137.464 26.0309 137.699 25.2629 137.699 24.424H137.099ZM136.499 26.368L136.006 26.0258C135.677 26.5004 135.199 26.892 134.546 27.1902L134.795 27.736L135.044 28.2818C135.863 27.908 136.522 27.3876 136.992 26.7102L136.499 26.368ZM134.795 27.736L134.552 27.1877C133.922 27.4676 133.176 27.616 132.299 27.616V28.216V28.816C133.311 28.816 134.229 28.6444 135.039 28.2843L134.795 27.736Z" fill="#262626" mask="url(#path-7-outside-1_2709_96)"/>
<defs>
<linearGradient id="paint0_linear_2709_96" x1="25.8066" y1="30.1702" x2="8.9708" y2="20.2791" gradientUnits="userSpaceOnUse">
<stop stop-color="#103B39"/>
<stop offset="1" stop-color="#1E7C78"/>
</linearGradient>
<linearGradient id="paint1_linear_2709_96" x1="39.9161" y1="34.9299" x2="34.9711" y2="35.0501" gradientUnits="userSpaceOnUse">
<stop stop-color="#103B39"/>
<stop offset="1" stop-color="#1E7C78"/>
</linearGradient>
<linearGradient id="paint2_linear_2709_96" x1="28.6206" y1="35.8488" x2="23.3101" y2="34.4003" gradientUnits="userSpaceOnUse">
<stop stop-color="#103B39"/>
<stop offset="1" stop-color="#1E7C78"/>
</linearGradient>
<linearGradient id="paint3_linear_2709_96" x1="33.5578" y1="30.9876" x2="28.1167" y2="28.8692" gradientUnits="userSpaceOnUse">
<stop stop-color="#103B39"/>
<stop offset="1" stop-color="#1E7C78"/>
</linearGradient>
<linearGradient id="paint4_linear_2709_96" x1="37.5839" y1="25.7904" x2="32.2971" y2="23.1742" gradientUnits="userSpaceOnUse">
<stop stop-color="#103B39"/>
<stop offset="1" stop-color="#1E7C78"/>
</linearGradient>
<linearGradient id="paint5_linear_2709_96" x1="14.2976" y1="22.7148" x2="14.2976" y2="39.9263" gradientUnits="userSpaceOnUse">
<stop stop-color="#103B39"/>
<stop offset="1" stop-color="#1E7C78"/>
</linearGradient>
</defs>
</svg>
