<svg width="48" height="48" viewBox="0 0 48 48" fill="none" xmlns="http://www.w3.org/2000/svg">
<g clip-path="url(#clip0_2714_2)">
<path d="M43.6357 37.6727H4.36293C2.32656 37.6727 0.726562 36.0727 0.726562 34.0363V11.5636C0.726562 9.52725 2.32656 7.92725 4.36293 7.92725H4.65384C5.0902 7.92725 5.38111 8.21816 5.38111 8.65452C5.38111 9.09088 5.0902 9.38179 4.65384 9.38179H4.36293C3.12656 9.38179 2.18111 10.3272 2.18111 11.5636V34.0363C2.18111 35.2727 3.12656 36.2182 4.36293 36.2182H43.6357C44.872 36.2182 45.8175 35.2727 45.8175 34.0363V11.5636C45.8175 10.3272 44.872 9.38179 43.6357 9.38179H21.2357C20.7993 9.38179 20.5084 9.09088 20.5084 8.65452C20.5084 8.21816 20.7993 7.92725 21.2357 7.92725H43.6357C45.672 7.92725 47.272 9.52725 47.272 11.5636V34.0363C47.272 36.0727 45.672 37.6727 43.6357 37.6727Z" fill="#00828E"/>
<path d="M46.5447 33.2363H1.45384C1.01747 33.2363 0.726562 32.9454 0.726562 32.509C0.726562 32.0726 1.01747 31.7817 1.45384 31.7817H46.5447C46.9811 31.7817 47.272 32.0726 47.272 32.509C47.272 32.9454 46.9811 33.2363 46.5447 33.2363ZM29.0175 42.3999H18.9811C18.5447 42.3999 18.2538 42.109 18.2538 41.6726V36.9454C18.2538 36.509 18.5447 36.2181 18.9811 36.2181H29.0175C29.4538 36.2181 29.7447 36.509 29.7447 36.9454V41.6726C29.7447 42.109 29.4538 42.3999 29.0175 42.3999ZM19.7084 40.9454H28.2902V37.6726H19.7084V40.9454Z" fill="#00828E"/>
<path d="M32.1439 47.2001H15.853C14.8348 47.2001 14.0348 46.4001 14.0348 45.3819V42.7637C14.0348 41.7455 14.8348 40.9455 15.853 40.9455H32.1439C33.1621 40.9455 33.9621 41.7455 33.9621 42.7637V45.3819C33.9621 46.4001 33.1621 47.2001 32.1439 47.2001ZM15.853 42.4001C15.7075 42.4001 15.4894 42.6182 15.4894 42.7637V45.3819C15.4894 45.5273 15.5621 45.7455 15.853 45.7455H32.1439C32.2894 45.7455 32.5075 45.6728 32.5075 45.3819V42.7637C32.5075 42.6182 32.4348 42.4001 32.1439 42.4001H15.853ZM25.0894 35.491H22.9075C22.4712 35.491 22.1803 35.2001 22.1803 34.7637C22.1803 34.3273 22.4712 34.0364 22.9075 34.0364H25.0894C25.5257 34.0364 25.8166 34.3273 25.8166 34.7637C25.8166 35.2001 25.5257 35.491 25.0894 35.491ZM12.9439 18.5455C12.2166 18.5455 11.5621 18.4728 10.9075 18.3273C10.5439 18.2546 10.3257 17.891 10.3985 17.5273C10.5439 16.7273 10.3257 16.291 10.1075 16.1455C9.96209 16.0728 9.52573 16.291 9.08937 16.8728C8.87118 17.1637 8.43482 17.2364 8.14391 17.091C7.053 16.3637 6.18027 15.4182 5.52573 14.3273C5.30755 14.0364 5.453 13.6001 5.74391 13.3819C6.39846 12.8728 6.54391 12.4364 6.54391 12.291C6.47118 12.1455 6.03482 11.9273 5.23482 11.9273C4.87118 11.9273 4.50755 11.7091 4.43482 11.3455C4.21664 10.0364 4.21664 8.72733 4.50755 7.56369C4.58027 7.20005 4.94391 6.98187 5.30755 7.0546C5.96209 7.0546 6.47118 6.83642 6.54391 6.69096C6.61664 6.54551 6.39846 6.03642 5.81664 5.60005C5.52573 5.38187 5.453 4.94551 5.67118 4.6546C6.39846 3.56369 7.34391 2.69096 8.43482 2.03642C8.72573 1.81824 9.16209 1.96369 9.38027 2.2546C9.81664 2.90914 10.3257 3.0546 10.4712 3.0546C10.6166 2.90914 10.9075 2.40005 10.8348 1.60005C10.8348 1.23642 11.053 0.872781 11.4166 0.800054C12.7257 0.581872 14.0348 0.581872 15.1985 0.872781C15.5621 0.945509 15.7803 1.30914 15.7075 1.67278C15.5621 2.47278 15.7803 2.90914 15.9985 3.0546C16.1439 3.12733 16.5803 2.90915 17.0166 2.32733C17.2348 2.03642 17.6712 1.96369 17.9621 2.10915C19.053 2.83642 19.9257 3.78187 20.5803 4.87278C20.7985 5.16369 20.653 5.60005 20.3621 5.81824C19.7075 6.32733 19.5621 6.76369 19.5621 6.90915C19.6348 7.0546 20.0712 7.27278 20.7985 7.20005C21.1621 7.12733 21.5257 7.41824 21.5985 7.78187C21.8166 9.09096 21.8166 10.4001 21.5257 11.5637C21.453 11.9273 21.0894 12.1455 20.7257 12.0728C19.9257 11.9273 19.4894 12.1455 19.3439 12.3637C19.1985 12.7273 19.6348 13.2364 20.0712 13.5273C20.3621 13.7455 20.4348 14.1819 20.2894 14.4728C19.5621 15.5637 18.6166 16.4364 17.5257 17.091C17.2348 17.3091 16.7985 17.1637 16.5803 16.8728C16.2166 16.291 15.7075 16.0001 15.4166 16.1455C15.2712 16.2182 15.053 16.6546 15.1257 17.4546C15.1257 17.8182 14.9075 18.1819 14.5439 18.2546C14.1075 18.4728 13.5257 18.5455 12.9439 18.5455ZM11.853 17.0182C12.5075 17.091 13.1621 17.1637 13.8166 17.0182C13.8894 16.0001 14.3985 15.2001 15.053 14.9091C15.853 14.6182 16.7257 14.9091 17.453 15.6364C18.0348 15.2728 18.4712 14.8364 18.9075 14.3273C18.1803 13.6001 17.9621 12.6546 18.253 11.8546C18.6166 11.1273 19.4166 10.691 20.4348 10.691C20.5075 10.0364 20.5803 9.38187 20.5075 8.72733C19.4894 8.72733 18.6894 8.21824 18.3985 7.49096C18.1075 6.76369 18.3985 5.89096 19.1257 5.16369C18.7621 4.58187 18.3257 4.14551 17.8166 3.70915C17.0894 4.43642 16.1439 4.72733 15.4166 4.36369C14.6894 4.00005 14.3257 3.20005 14.3257 2.18187C13.6712 2.10915 13.0166 2.03642 12.3621 2.18187C12.2894 3.27278 11.853 4.07278 11.053 4.36369C10.3257 4.6546 9.453 4.36369 8.72573 3.63642C8.14391 4.00005 7.70755 4.43642 7.27118 4.94551C7.99846 5.67278 8.28937 6.61824 7.92573 7.34551C7.56209 8.07278 6.76209 8.43642 5.74391 8.43642C5.67118 9.09096 5.59846 9.74551 5.74391 10.4001C6.76209 10.4728 7.56209 10.9091 7.853 11.6364C8.14391 12.3637 7.853 13.2364 7.12573 13.9637C7.48937 14.5455 7.92573 14.9819 8.43482 15.4182C9.16209 14.691 10.1075 14.4001 10.8348 14.7637C11.4166 15.2001 11.853 16.0001 11.853 17.0182Z" fill="#00828E"/>
<path d="M13.0173 14.5457C11.7249 14.5457 10.4855 14.0324 9.57172 13.1186C8.65791 12.2047 8.14453 10.9653 8.14453 9.67302C8.14453 8.38069 8.65791 7.1413 9.57172 6.22748C10.4855 5.31367 11.7249 4.80029 13.0173 4.80029C14.3096 4.80029 15.549 5.31367 16.4628 6.22748C17.3766 7.1413 17.89 8.38069 17.89 9.67302C17.89 10.9653 17.3766 12.2047 16.4628 13.1186C15.549 14.0324 14.3096 14.5457 13.0173 14.5457ZM13.0173 6.25484C11.1263 6.25484 9.59908 7.78211 9.59908 9.67302C9.59908 11.5639 11.1263 13.0912 13.0173 13.0912C14.9082 13.0912 16.4354 11.5639 16.4354 9.67302C16.4354 7.78211 14.9082 6.25484 13.0173 6.25484ZM41.5991 29.9639H26.2536C24.7991 29.9639 23.7082 28.873 23.7082 27.4185V14.2548C23.7082 12.8003 24.7991 11.7094 26.2536 11.7094H41.6718C43.1263 11.7094 44.2173 12.8003 44.2173 14.2548V27.4912C44.1445 28.873 42.9809 29.9639 41.5991 29.9639ZM26.2536 13.1639C25.6718 13.1639 25.1627 13.673 25.1627 14.2548V27.4185C25.1627 28.0003 25.6718 28.5094 26.2536 28.5094H41.5991C42.1809 28.5094 42.69 28.073 42.7627 27.4185V14.2548C42.7627 13.673 42.2536 13.1639 41.6718 13.1639H26.2536Z" fill="#00828E"/>
<path d="M43.4181 18.0362H24.4363C23.9999 18.0362 23.709 17.7453 23.709 17.3089C23.709 16.8725 23.9999 16.5816 24.4363 16.5816H43.4181C43.8544 16.5816 44.1454 16.8725 44.1454 17.3089C44.1454 17.7453 43.8544 18.0362 43.4181 18.0362ZM34.7635 15.6362H26.909C26.4726 15.6362 26.1817 15.3453 26.1817 14.9089C26.1817 14.4725 26.4726 14.1816 26.909 14.1816H34.7635C35.1999 14.1816 35.4908 14.4725 35.4908 14.9089C35.4908 15.3453 35.1999 15.6362 34.7635 15.6362ZM37.8181 15.6362H37.0181C36.5817 15.6362 36.2908 15.3453 36.2908 14.9089C36.2908 14.4725 36.5817 14.1816 37.0181 14.1816H37.8181C38.2544 14.1816 38.5453 14.4725 38.5453 14.9089C38.5453 15.3453 38.2544 15.6362 37.8181 15.6362ZM40.9453 15.6362H40.1454C39.709 15.6362 39.4181 15.3453 39.4181 14.9089C39.4181 14.4725 39.709 14.1816 40.1454 14.1816H40.9453C41.3817 14.1816 41.6726 14.4725 41.6726 14.9089C41.6726 15.3453 41.3817 15.6362 40.9453 15.6362ZM31.2726 25.9635C31.0544 25.9635 30.909 25.8907 30.7635 25.7453L28.6544 23.6362C28.509 23.4907 28.4363 23.3453 28.4363 23.1271C28.4363 22.9089 28.509 22.7635 28.6544 22.618L30.8363 20.5089C31.1272 20.218 31.5635 20.218 31.8544 20.5089C32.1453 20.7998 32.1453 21.2362 31.8544 21.5271L30.1817 23.1271L31.7817 24.7271C32.0726 25.018 32.0726 25.4544 31.7817 25.7453C31.6363 25.8907 31.4908 25.9635 31.2726 25.9635ZM36.5817 25.9635C36.3635 25.9635 36.2181 25.8907 36.0726 25.7453C35.7817 25.4544 35.7817 25.018 36.0726 24.7271L38.1817 22.618C38.4726 22.3271 38.909 22.3271 39.1999 22.618C39.4908 22.9089 39.4908 23.3453 39.1999 23.6362L37.0908 25.7453C36.9453 25.8907 36.7999 25.9635 36.5817 25.9635Z" fill="#00828E"/>
<path d="M38.6905 23.8547C38.545 23.8547 38.3268 23.7819 38.1814 23.6365L35.9995 21.5274C35.7086 21.2365 35.7086 20.8001 35.9995 20.5092C36.2905 20.2183 36.7268 20.2183 37.0177 20.5092L39.1995 22.6183C39.4905 22.9092 39.4905 23.3456 39.1995 23.6365C39.0541 23.7819 38.9086 23.8547 38.6905 23.8547ZM33.1632 26.691H32.945C32.5814 26.6183 32.3632 26.1819 32.4359 25.8183L33.9632 20.1456C34.0359 19.7819 34.4723 19.5638 34.8359 19.6365C35.1995 19.7092 35.4177 20.1456 35.345 20.5092L33.8905 26.1819C33.745 26.4729 33.4541 26.691 33.1632 26.691ZM18.8359 29.9638H7.19954C5.45408 29.9638 4.07227 28.5819 4.07227 26.8365C4.07227 25.091 5.45408 23.7092 7.19954 23.7092H18.8359C20.5814 23.7092 21.9632 25.091 21.9632 26.8365C21.9632 28.5819 20.5814 29.9638 18.8359 29.9638ZM7.19954 25.1638C6.32681 25.1638 5.52681 25.9638 5.52681 26.8365C5.52681 27.7092 6.32681 28.5092 7.19954 28.5092H18.8359C19.7086 28.5092 20.5086 27.7092 20.5086 26.8365C20.5086 25.9638 19.7086 25.1638 18.8359 25.1638H7.19954Z" fill="#00828E"/>
<path d="M14.6902 27.5639H8.21751C7.78114 27.5639 7.49023 27.273 7.49023 26.8366C7.49023 26.4003 7.78114 26.1094 8.21751 26.1094H14.6902C15.1266 26.1094 15.4175 26.4003 15.4175 26.8366C15.4175 27.273 15.1266 27.5639 14.6902 27.5639Z" fill="#00828E"/>
</g>
<defs>
<clipPath id="clip0_2714_2">
<rect width="48" height="48" fill="white"/>
</clipPath>
</defs>
</svg>
