<svg width="48" height="48" viewBox="0 0 48 48" fill="none" xmlns="http://www.w3.org/2000/svg">
<path d="M26.25 6H21.75C21.5511 6 21.3603 5.92098 21.2197 5.78033C21.079 5.63968 21 5.44891 21 5.25C21 5.05109 21.079 4.86032 21.2197 4.71967C21.3603 4.57902 21.5511 4.5 21.75 4.5H26.25C26.4489 4.5 26.6397 4.57902 26.7803 4.71967C26.921 4.86032 27 5.05109 27 5.25C27 5.44891 26.921 5.63968 26.7803 5.78033C26.6397 5.92098 26.4489 6 26.25 6ZM32.25 46.5H15.75C14.7558 46.4988 13.8027 46.1033 13.0997 45.4003C12.3967 44.6973 12.0012 43.7442 12 42.75V17.25C12 17.0511 12.079 16.8603 12.2197 16.7197C12.3603 16.579 12.5511 16.5 12.75 16.5C12.9489 16.5 13.1397 16.579 13.2803 16.7197C13.421 16.8603 13.5 17.0511 13.5 17.25V42.75C13.5 43.9905 14.5095 45 15.75 45H32.25C33.4905 45 34.5 43.9905 34.5 42.75V17.25C34.5 17.0511 34.579 16.8603 34.7197 16.7197C34.8603 16.579 35.0511 16.5 35.25 16.5C35.4489 16.5 35.6397 16.579 35.7803 16.7197C35.921 16.8603 36 17.0511 36 17.25V42.75C36 44.817 34.3185 46.5 32.25 46.5Z" fill="#00828E"/>
<path d="M35.25 22.5C35.0511 22.5 34.8603 22.421 34.7197 22.2803C34.579 22.1397 34.5 21.9489 34.5 21.75V5.25C34.5 4.0095 33.4905 3 32.25 3H15.75C14.5095 3 13.5 4.0095 13.5 5.25V21.75C13.5 21.9489 13.421 22.1397 13.2803 22.2803C13.1397 22.421 12.9489 22.5 12.75 22.5C12.5511 22.5 12.3603 22.421 12.2197 22.2803C12.079 22.1397 12 21.9489 12 21.75V5.25C12 3.183 13.6815 1.5 15.75 1.5H32.25C34.3185 1.5 36 3.183 36 5.25V21.75C36 21.9489 35.921 22.1397 35.7803 22.2803C35.6397 22.421 35.4489 22.5 35.25 22.5ZM39.75 9.075C39.336 9.075 39 8.814 39 8.4V8.25C39 8.05109 39.079 7.86032 39.2197 7.71967C39.3603 7.57902 39.5511 7.5 39.75 7.5C39.9489 7.5 40.1397 7.57902 40.2803 7.71967C40.421 7.86032 40.5 8.05109 40.5 8.25C40.5 8.664 40.164 9.075 39.75 9.075ZM39.75 12.075C39.336 12.075 39 11.814 39 11.4V11.25C39 11.0511 39.079 10.8603 39.2197 10.7197C39.3603 10.579 39.5511 10.5 39.75 10.5C39.9489 10.5 40.1397 10.579 40.2803 10.7197C40.421 10.8603 40.5 11.0511 40.5 11.25C40.5 11.664 40.164 12.075 39.75 12.075ZM39.75 15.075C39.336 15.075 39 14.814 39 14.4V14.25C39 14.0511 39.079 13.8603 39.2197 13.7197C39.3603 13.579 39.5511 13.5 39.75 13.5C39.9489 13.5 40.1397 13.579 40.2803 13.7197C40.421 13.8603 40.5 14.0511 40.5 14.25C40.5 14.664 40.164 15.075 39.75 15.075ZM8.25 34.425C7.836 34.425 7.5 34.164 7.5 33.75V33.6C7.5 33.4011 7.57902 33.2103 7.71967 33.0697C7.86032 32.929 8.05109 32.85 8.25 32.85C8.44891 32.85 8.63968 32.929 8.78033 33.0697C8.92098 33.2103 9 33.4011 9 33.6C9 34.014 8.664 34.425 8.25 34.425ZM8.25 37.425C7.836 37.425 7.5 37.164 7.5 36.75V36.6C7.5 36.4011 7.57902 36.2103 7.71967 36.0697C7.86032 35.929 8.05109 35.85 8.25 35.85C8.44891 35.85 8.63968 35.929 8.78033 36.0697C8.92098 36.2103 9 36.4011 9 36.6C9 37.014 8.664 37.425 8.25 37.425ZM8.25 40.425C7.836 40.425 7.5 40.164 7.5 39.75V39.6C7.5 39.4011 7.57902 39.2103 7.71967 39.0697C7.86032 38.929 8.05109 38.85 8.25 38.85C8.44891 38.85 8.63968 38.929 8.78033 39.0697C8.92098 39.2103 9 39.4011 9 39.6C9 40.014 8.664 40.425 8.25 40.425Z" fill="#00828E"/>
<path d="M37.2615 40.5C37.1496 40.5 37.0392 40.475 36.9382 40.4268C36.8372 40.3786 36.7483 40.3085 36.678 40.2215C36.6077 40.1344 36.5577 40.0328 36.5317 39.924C36.5058 39.8151 36.5045 39.7019 36.528 39.5925L37.023 37.2975C37.0525 37.1597 37.1205 37.033 37.2189 36.9321C37.3174 36.8313 37.4424 36.7603 37.5795 36.7275C38.3033 36.55 38.995 36.2611 39.63 35.871C39.7497 35.7979 39.8876 35.7599 40.0278 35.7612C40.1681 35.7625 40.3052 35.8032 40.4235 35.8785L41.9085 36.828L42.828 35.901L41.8785 34.428C41.8023 34.3096 41.7609 34.1721 41.759 34.0313C41.7572 33.8904 41.7949 33.7519 41.868 33.6315C42.2582 32.9968 42.5467 32.3049 42.723 31.581C42.756 31.4443 42.8266 31.3196 42.9268 31.221C43.027 31.1224 43.1528 31.0538 43.29 31.023L45 30.6435V29.358L43.2915 28.9785C43.1543 28.9477 43.0285 28.8791 42.9283 28.7805C42.8281 28.6819 42.7575 28.5572 42.7245 28.4205C42.5476 27.6968 42.2591 27.005 41.8695 26.37C41.7958 26.2501 41.7576 26.1119 41.7592 25.9712C41.7608 25.8305 41.8021 25.6932 41.8785 25.575L42.8295 24.0885L41.9115 23.1705L40.425 24.1215C40.3068 24.1972 40.1697 24.238 40.0293 24.2393C39.889 24.2407 39.7511 24.2024 39.6315 24.129C38.9963 23.7394 38.3046 23.4505 37.581 23.2725C37.4439 23.2397 37.3189 23.1687 37.2204 23.0679C37.122 22.967 37.054 22.8403 37.0245 22.7025L36.6555 21H36C35.8011 21 35.6103 20.921 35.4697 20.7803C35.329 20.6397 35.25 20.4489 35.25 20.25C35.25 20.0511 35.329 19.8603 35.4697 19.7197C35.6103 19.579 35.8011 19.5 36 19.5H37.26C37.4313 19.5003 37.5974 19.5592 37.7306 19.667C37.8638 19.7748 37.956 19.925 37.992 20.0925L38.3925 21.942C38.9415 22.1085 39.48 22.3335 39.999 22.614L41.61 21.5835C41.7541 21.4914 41.9253 21.4514 42.0952 21.4699C42.2652 21.4885 42.4237 21.5645 42.5445 21.6855L44.316 23.4555C44.4367 23.5765 44.5125 23.7351 44.5308 23.9051C44.5491 24.075 44.5087 24.2461 44.4165 24.39L43.386 26.001C43.6665 26.5215 43.8915 27.06 44.058 27.6105L45.9105 28.0215C46.2555 28.098 46.5 28.404 46.5 28.755V31.245C46.4999 31.4157 46.4416 31.5813 46.3347 31.7144C46.2278 31.8475 46.0787 31.9401 45.912 31.977L44.0595 32.388C43.8902 32.9453 43.6651 33.484 43.3875 33.996L44.4165 35.592C44.5097 35.7354 44.5508 35.9064 44.5331 36.0765C44.5153 36.2466 44.4398 36.4054 44.319 36.5265L42.5475 38.3115C42.4266 38.4328 42.2679 38.5092 42.0977 38.528C41.9275 38.5469 41.756 38.507 41.6115 38.415L40.0005 37.3845C39.4888 37.6615 38.9506 37.8866 38.394 38.0565L37.9935 39.906C37.9576 40.0737 37.8654 40.224 37.7322 40.332C37.5991 40.4401 37.433 40.4994 37.2615 40.5Z" fill="#00828E"/>
<path d="M38.0871 33.867C37.9265 33.8667 37.7702 33.8149 37.6412 33.7191C37.5123 33.6233 37.4175 33.4887 37.3708 33.335C37.3241 33.1813 37.328 33.0167 37.3819 32.8654C37.4357 32.7141 37.5368 32.5841 37.6701 32.4945C38.2458 32.1065 38.6693 31.5311 38.8685 30.8661C39.0677 30.2011 39.0304 29.4876 38.7629 28.847C38.4954 28.2064 38.0142 27.6782 37.4012 27.3524C36.7882 27.0266 36.0812 26.9233 35.4006 27.06C35.3041 27.0798 35.2046 27.0804 35.1078 27.0617C35.0111 27.0431 34.919 27.0055 34.8367 26.9513C34.7545 26.897 34.6837 26.8271 34.6285 26.7455C34.5732 26.6639 34.5346 26.5722 34.5148 26.4757C34.495 26.3792 34.4944 26.2797 34.5131 26.183C34.5317 26.0862 34.5693 25.9941 34.6235 25.9118C34.6778 25.8296 34.7477 25.7588 34.8293 25.7036C34.9109 25.6484 35.0026 25.6098 35.0991 25.59C35.7529 25.4574 36.4281 25.4716 37.0758 25.6317C37.7235 25.7918 38.3275 26.0937 38.8443 26.5157C39.3611 26.9376 39.7778 27.469 40.0642 28.0716C40.3506 28.6742 40.4997 29.3328 40.5006 30C40.5007 30.7394 40.3187 31.4674 39.9704 32.1196C39.6222 32.7719 39.1186 33.3282 38.5041 33.7395C38.3808 33.8224 38.2357 33.8668 38.0871 33.867ZM12.0006 22.5C11.0337 22.5013 10.0922 22.191 9.3155 21.6152C8.53881 21.0394 7.96831 20.2287 7.68854 19.3032C7.40877 18.3777 7.43462 17.3867 7.76227 16.477C8.08992 15.5674 8.70192 14.7875 9.50758 14.253C9.67308 14.1496 9.87233 14.1149 10.063 14.1561C10.2538 14.1972 10.4209 14.3111 10.529 14.4735C10.6372 14.6359 10.6778 14.834 10.6422 15.0259C10.6067 15.2177 10.4977 15.3881 10.3386 15.501C9.7629 15.8874 9.33868 16.4612 9.13794 17.1249C8.9372 17.7885 8.9723 18.5012 9.23728 19.1419C9.50227 19.7827 9.98081 20.312 10.5917 20.64C11.2025 20.968 11.9081 21.0745 12.5886 20.9415C12.7836 20.903 12.986 20.9432 13.1515 21.0534C13.317 21.1635 13.4323 21.3347 13.4721 21.5295C13.4915 21.626 13.4917 21.7254 13.4727 21.822C13.4537 21.9187 13.4157 22.0106 13.3611 22.0925C13.3065 22.1744 13.2362 22.2448 13.1544 22.2995C13.0725 22.3543 12.9807 22.3923 12.8841 22.4115C12.5933 22.4707 12.2973 22.5003 12.0006 22.5Z" fill="#00828E"/>
<path d="M12 28.4999H10.74C10.5687 28.4996 10.4026 28.4406 10.2694 28.3328C10.1362 28.225 10.044 28.0749 10.008 27.9074L9.6075 26.0579C9.05083 25.8883 8.51262 25.6632 8.001 25.3859L6.39 26.4164C6.24594 26.5084 6.07474 26.5485 5.90479 26.5299C5.73483 26.5114 5.57631 26.4353 5.4555 26.3144L3.684 24.5444C3.56327 24.4234 3.48749 24.2648 3.46921 24.0948C3.45093 23.9249 3.49126 23.7538 3.5835 23.6099L4.614 21.9989C4.33669 21.4862 4.11156 20.947 3.942 20.3894L2.0895 19.9784C1.92241 19.9415 1.77292 19.8487 1.66573 19.7153C1.55854 19.5819 1.50008 19.416 1.5 19.2449V16.7549C1.50007 16.5842 1.55837 16.4186 1.66528 16.2855C1.7722 16.1524 1.92131 16.0597 2.088 16.0229L3.9405 15.6119C4.107 15.0614 4.332 14.5229 4.6125 14.0039L3.585 12.4064C3.49183 12.263 3.45069 12.092 3.46843 11.9219C3.48618 11.7518 3.56174 11.5929 3.6825 11.4719L5.454 9.68687C5.57444 9.56481 5.7332 9.4879 5.90364 9.46905C6.07407 9.45021 6.24581 9.49057 6.39 9.58337L8.001 10.6139C8.51274 10.3368 9.05092 10.1117 9.6075 9.94187L10.008 8.09237C10.0262 7.99359 10.064 7.89947 10.1192 7.81558C10.1745 7.73169 10.246 7.65976 10.3295 7.60403C10.4131 7.54831 10.507 7.50994 10.6057 7.4912C10.7043 7.47246 10.8058 7.47373 10.904 7.49493C11.0021 7.51613 11.095 7.55684 11.1772 7.61463C11.2593 7.67242 11.329 7.74612 11.3822 7.83136C11.4353 7.91661 11.4707 8.01165 11.4864 8.11085C11.5021 8.21005 11.4977 8.3114 11.4735 8.40887L10.9785 10.7039C10.949 10.8417 10.881 10.9684 10.7826 11.0692C10.6841 11.1701 10.5591 11.2411 10.422 11.2739C9.69784 11.4516 9.00562 11.7405 8.37 12.1304C8.25027 12.2035 8.11244 12.2415 7.97218 12.2402C7.83191 12.2388 7.69483 12.1982 7.5765 12.1229L6.0915 11.1734L5.1705 12.1004L6.12 13.5734C6.19689 13.6916 6.23869 13.8291 6.24055 13.9701C6.24241 14.1111 6.20425 14.2497 6.1305 14.3699C5.74026 15.0046 5.45177 15.6964 5.2755 16.4204C5.24251 16.557 5.17191 16.6817 5.0717 16.7804C4.97149 16.879 4.84568 16.9476 4.7085 16.9784L3 17.3564V18.6419L4.7085 19.0214C4.84568 19.0522 4.97149 19.1208 5.0717 19.2194C5.17191 19.318 5.24251 19.4427 5.2755 19.5794C5.445 20.2874 5.7345 20.9774 6.1305 21.6299C6.2805 21.8744 6.2775 22.1834 6.1215 22.4249L5.1705 23.9099L6.0885 24.8279L7.575 23.8769C7.69345 23.8019 7.83049 23.7614 7.97068 23.7601C8.11087 23.7588 8.24865 23.7966 8.3685 23.8694C9.0225 24.2669 9.7125 24.5549 10.419 24.7259C10.5561 24.7587 10.6811 24.8296 10.7796 24.9305C10.878 25.0314 10.946 25.158 10.9755 25.2959L11.3445 26.9999H12C12.1989 26.9999 12.3897 27.0789 12.5303 27.2195C12.671 27.3602 12.75 27.551 12.75 27.7499C12.75 27.9488 12.671 28.1396 12.5303 28.2802C12.3897 28.4209 12.1989 28.4999 12 28.4999ZM23.25 27.7499C23.136 27.7501 23.0234 27.7243 22.9209 27.6745C22.8183 27.6246 22.7286 27.552 22.6584 27.4621C22.5882 27.3722 22.5395 27.2675 22.5159 27.156C22.4924 27.0444 22.4946 26.9289 22.5225 26.8184L24.0225 20.8184C24.0456 20.7224 24.0876 20.6321 24.146 20.5525C24.2044 20.473 24.2781 20.4058 24.3627 20.355C24.4473 20.3042 24.5411 20.2707 24.6388 20.2565C24.7364 20.2424 24.8359 20.2477 24.9315 20.2724C25.0271 20.2961 25.1171 20.3384 25.1964 20.3969C25.2756 20.4555 25.3425 20.5291 25.3932 20.6135C25.4439 20.698 25.4775 20.7916 25.492 20.889C25.5064 20.9865 25.5015 21.0858 25.4775 21.1814L23.9775 27.1814C23.9375 27.344 23.844 27.4884 23.7121 27.5915C23.5802 27.6946 23.4174 27.7504 23.25 27.7499ZM27.75 27.7499C27.6018 27.7498 27.4569 27.7059 27.3336 27.6236C27.2104 27.5413 27.1143 27.4243 27.0574 27.2874C27.0006 27.1505 26.9857 26.9998 27.0144 26.8544C27.0432 26.709 27.1144 26.5753 27.219 26.4704L29.6895 23.9999L27.2205 21.5309C27.0839 21.3894 27.0083 21.2 27.01 21.0033C27.0117 20.8067 27.0906 20.6186 27.2296 20.4795C27.3687 20.3405 27.5568 20.2616 27.7535 20.2599C27.9501 20.2582 28.1395 20.3338 28.281 20.4704L31.281 23.4704C31.4216 23.611 31.5006 23.8017 31.5006 24.0006C31.5006 24.1995 31.4216 24.3902 31.281 24.5309L28.281 27.5309C28.1399 27.6712 27.949 27.7499 27.75 27.7499ZM20.25 27.7499C20.051 27.7499 19.8601 27.6712 19.719 27.5309L16.719 24.5309C16.5784 24.3902 16.4994 24.1995 16.4994 24.0006C16.4994 23.8017 16.5784 23.611 16.719 23.4704L19.719 20.4704C19.8605 20.3338 20.0499 20.2582 20.2466 20.2599C20.4432 20.2616 20.6313 20.3405 20.7704 20.4795C20.9094 20.6186 20.9883 20.8067 20.99 21.0033C20.9917 21.2 20.9161 21.3894 20.7795 21.5309L18.3105 23.9999L20.7795 26.4689C20.8846 26.5737 20.9562 26.7073 20.9853 26.8528C21.0144 26.9983 20.9997 27.1492 20.943 27.2864C20.8863 27.4235 20.7902 27.5408 20.6668 27.6233C20.5435 27.7058 20.3984 27.7498 20.25 27.7499Z" fill="#00828E"/>
</svg>
