<svg width="48" height="48" viewBox="0 0 48 48" fill="none" xmlns="http://www.w3.org/2000/svg">
<path d="M46.5 19.5C46.5 18.9033 46.2629 18.331 45.841 17.909C45.419 17.4871 44.8467 17.25 44.25 17.25H43.5V14.595C43.9714 14.1744 44.3487 13.6591 44.6072 13.0827C44.8657 12.5062 44.9995 11.8817 45 11.25V11.073L40.9635 3H10.0365L6 11.073V11.25C6.00048 11.8817 6.13434 12.5062 6.39283 13.0827C6.65132 13.6591 7.0286 14.1744 7.5 14.595V17.25H6.75C6.15326 17.25 5.58097 17.4871 5.15901 17.909C4.73705 18.331 4.5 18.9033 4.5 19.5V43.5H3V45.75C3 46.3467 3.23705 46.919 3.65901 47.341C4.08097 47.7629 4.65326 48 5.25 48H45.75C46.3467 48 46.919 47.7629 47.341 47.341C47.7629 46.919 48 46.3467 48 45.75V43.5H46.5V19.5ZM35.508 4.5H40.0365L43.4955 11.418C43.4527 12.1986 43.1069 12.9316 42.5317 13.4611C41.9565 13.9905 41.1974 14.2745 40.416 14.2526C39.6345 14.2307 38.8925 13.9046 38.3479 13.3438C37.8032 12.783 37.499 12.0318 37.5 11.25L35.508 4.5ZM33.942 4.5L36 11.3542C35.9762 12.1499 35.6374 12.9035 35.0579 13.4493C34.4785 13.9951 33.706 14.2884 32.9104 14.2646C32.1147 14.2409 31.3611 13.902 30.8153 13.3226C30.2695 12.7432 29.9762 11.9706 30 11.175L29.325 4.5H33.942ZM23.1788 4.5H27.825L28.5 11.2852C28.5053 12.0809 28.1943 12.8461 27.6354 13.4124C27.0765 13.9787 26.3155 14.2999 25.5199 14.3051C24.7242 14.3104 23.9591 13.9994 23.3927 13.4405C22.8264 12.8816 22.5053 12.1206 22.5 11.325L23.1788 4.5ZM21.675 4.5L21 11.25C21.0138 12.0456 20.711 12.8142 20.1582 13.3866C19.6053 13.959 18.8478 14.2883 18.0521 14.3021C17.2565 14.3159 16.4879 14.0131 15.9155 13.4603C15.3432 12.9075 15.0138 12.1499 15 11.3542L17.058 4.5H21.675ZM10.9635 4.5H15.492L13.5315 11.0348L13.5 11.25C13.501 12.0318 13.1968 12.783 12.6521 13.3438C12.1075 13.9046 11.3655 14.2307 10.584 14.2526C9.80259 14.2745 9.04346 13.9905 8.46827 13.4611C7.89309 12.9316 7.54729 12.1986 7.5045 11.418L10.9635 4.5ZM10.5 15.75C11.2433 15.7496 11.9749 15.5649 12.6294 15.2124C13.2838 14.86 13.8406 14.3507 14.25 13.7302C14.6599 14.3503 15.217 14.8592 15.8714 15.2116C16.5258 15.5641 17.2573 15.749 18.0006 15.7501C18.7438 15.7511 19.4758 15.5682 20.1312 15.2176C20.7866 14.867 21.3451 14.3596 21.7568 13.7407C22.1672 14.359 22.7244 14.8659 23.3786 15.2164C24.0327 15.5668 24.7635 15.7497 25.5056 15.7489C26.2477 15.7481 26.978 15.5635 27.6314 15.2117C28.2848 14.8598 28.8409 14.3516 29.25 13.7325C29.6595 14.3526 30.2165 14.8615 30.8709 15.2135C31.5253 15.5656 32.2569 15.7499 33 15.7499C33.7431 15.7499 34.4747 15.5656 35.1291 15.2135C35.7835 14.8615 36.3405 14.3526 36.75 13.7325C37.3005 14.5725 38.1179 15.2027 39.0703 15.5215C40.0227 15.8403 41.0547 15.8291 42 15.4897V40.5H9V15.4875C9.48137 15.6599 9.98869 15.7487 10.5 15.75ZM6 19.5C6 19.3011 6.07902 19.1103 6.21967 18.9697C6.36032 18.829 6.55109 18.75 6.75 18.75H7.5V42H43.5V18.75H44.25C44.4489 18.75 44.6397 18.829 44.7803 18.9697C44.921 19.1103 45 19.3011 45 19.5V43.5H6V19.5ZM46.5 45.75C46.5 45.9489 46.421 46.1397 46.2803 46.2803C46.1397 46.421 45.9489 46.5 45.75 46.5H5.25C5.05109 46.5 4.86032 46.421 4.71967 46.2803C4.57902 46.1397 4.5 45.9489 4.5 45.75V45H46.5V45.75Z" fill="#00828E"/>
<path d="M18.135 34.5H36.66L38.3602 21.75H17.115L16.365 18H12.75V19.5H15.135L18.135 34.5ZM36.6435 23.25L35.3438 33H19.365L17.415 23.25H36.6435ZM19.5 36.75C19.5 37.195 19.632 37.63 19.8792 38C20.1264 38.37 20.4778 38.6584 20.889 38.8287C21.3001 38.999 21.7525 39.0436 22.189 38.9568C22.6254 38.87 23.0263 38.6557 23.341 38.341C23.6557 38.0263 23.87 37.6254 23.9568 37.189C24.0436 36.7525 23.999 36.3001 23.8287 35.889C23.6584 35.4778 23.37 35.1264 23 34.8792C22.63 34.632 22.195 34.5 21.75 34.5C21.1533 34.5 20.581 34.7371 20.159 35.159C19.7371 35.581 19.5 36.1533 19.5 36.75ZM21.75 36C21.8983 36 22.0433 36.044 22.1667 36.1264C22.29 36.2088 22.3861 36.3259 22.4429 36.463C22.4997 36.6 22.5145 36.7508 22.4856 36.8963C22.4567 37.0418 22.3852 37.1754 22.2803 37.2803C22.1754 37.3852 22.0418 37.4567 21.8963 37.4856C21.7508 37.5145 21.6 37.4997 21.463 37.4429C21.3259 37.3861 21.2088 37.29 21.1264 37.1667C21.044 37.0433 21 36.8983 21 36.75C21 36.5511 21.079 36.3603 21.2197 36.2197C21.3603 36.079 21.5511 36 21.75 36ZM30.75 36.75C30.75 37.195 30.882 37.63 31.1292 38C31.3764 38.37 31.7278 38.6584 32.139 38.8287C32.5501 38.999 33.0025 39.0436 33.439 38.9568C33.8754 38.87 34.2763 38.6557 34.591 38.341C34.9057 38.0263 35.12 37.6254 35.2068 37.189C35.2936 36.7525 35.249 36.3001 35.0787 35.889C34.9084 35.4778 34.62 35.1264 34.25 34.8792C33.88 34.632 33.445 34.5 33 34.5C32.4033 34.5 31.831 34.7371 31.409 35.159C30.9871 35.581 30.75 36.1533 30.75 36.75ZM33 36C33.1483 36 33.2933 36.044 33.4167 36.1264C33.54 36.2088 33.6361 36.3259 33.6929 36.463C33.7497 36.6 33.7645 36.7508 33.7356 36.8963C33.7067 37.0418 33.6352 37.1754 33.5303 37.2803C33.4254 37.3852 33.2918 37.4567 33.1463 37.4856C33.0008 37.5145 32.85 37.4997 32.713 37.4429C32.5759 37.3861 32.4588 37.29 32.3764 37.1667C32.294 37.0433 32.25 36.8983 32.25 36.75C32.25 36.5511 32.329 36.3603 32.4697 36.2197C32.6103 36.079 32.8011 36 33 36Z" fill="#00828E"/>
</svg>
