<svg width="48" height="48" viewBox="0 0 48 48" fill="none" xmlns="http://www.w3.org/2000/svg">
<g clip-path="url(#clip0_2714_63)">
<path d="M12.0325 27.1107C12.0325 26.9615 12.0918 26.8184 12.1973 26.713C12.3028 26.6075 12.4459 26.5482 12.595 26.5482H12.6575C12.8067 26.5482 12.9497 26.6075 13.0552 26.713C13.1607 26.8184 13.22 26.9615 13.22 27.1107C13.22 27.2599 13.1607 27.403 13.0552 27.5085C12.9497 27.6139 12.8067 27.6732 12.6575 27.6732H12.595C12.4459 27.6732 12.3028 27.6139 12.1973 27.5085C12.0918 27.403 12.0325 27.2599 12.0325 27.1107ZM27.529 26.7041H34.6795C34.8287 26.7041 34.9718 26.6448 35.0773 26.5394C35.1828 26.4339 35.242 26.2908 35.242 26.1416C35.242 25.9924 35.1828 25.8494 35.0773 25.7439C34.9718 25.6384 34.8287 25.5791 34.6795 25.5791H27.529C27.3799 25.5791 27.2368 25.6384 27.1313 25.7439C27.0258 25.8494 26.9665 25.9924 26.9665 26.1416C26.9665 26.2908 27.0258 26.4339 27.1313 26.5394C27.2368 26.6448 27.3799 26.7041 27.529 26.7041ZM16.866 27.6732H16.9285C17.0776 27.6732 17.2207 27.6139 17.3262 27.5085C17.4317 27.403 17.491 27.2599 17.491 27.1107C17.491 26.9615 17.4317 26.8184 17.3262 26.713C17.2207 26.6075 17.0776 26.5482 16.9285 26.5482H16.866C16.7168 26.5482 16.5738 26.6075 16.4683 26.713C16.3628 26.8184 16.3035 26.9615 16.3035 27.1107C16.3035 27.2599 16.3628 27.403 16.4683 27.5085C16.5738 27.6139 16.7168 27.6732 16.866 27.6732ZM12.595 25.7351H12.6574C12.8066 25.7351 12.9496 25.6758 13.0551 25.5704C13.1606 25.4649 13.2199 25.3218 13.2199 25.1726C13.2199 25.0234 13.1606 24.8804 13.0551 24.7749C12.9496 24.6694 12.8066 24.6101 12.6574 24.6101H12.595C12.4458 24.6101 12.3027 24.6694 12.1972 24.7749C12.0917 24.8804 12.0325 25.0234 12.0325 25.1726C12.0325 25.3218 12.0917 25.4649 12.1972 25.5704C12.3027 25.6758 12.4458 25.7351 12.595 25.7351ZM14.7305 27.6732H14.7929C14.9421 27.6732 15.0852 27.6139 15.1907 27.5085C15.2962 27.403 15.3554 27.2599 15.3554 27.1107C15.3554 26.9615 15.2962 26.8184 15.1907 26.713C15.0852 26.6075 14.9421 26.5482 14.7929 26.5482H14.7305C14.5813 26.5482 14.4382 26.6075 14.3327 26.713C14.2272 26.8184 14.168 26.9615 14.168 27.1107C14.168 27.2599 14.2272 27.403 14.3327 27.5085C14.4382 27.6139 14.5813 27.6732 14.7305 27.6732ZM16.866 25.7351H16.9285C17.0776 25.7351 17.2207 25.6758 17.3262 25.5704C17.4317 25.4649 17.491 25.3218 17.491 25.1726C17.491 25.0234 17.4317 24.8804 17.3262 24.7749C17.2207 24.6694 17.0776 24.6101 16.9285 24.6101H16.866C16.7168 24.6101 16.5738 24.6694 16.4683 24.7749C16.3628 24.8804 16.3035 25.0234 16.3035 25.1726C16.3035 25.3218 16.3628 25.4649 16.4683 25.5704C16.5738 25.6758 16.7168 25.7351 16.866 25.7351ZM14.7305 25.7351H14.7929C14.9421 25.7351 15.0852 25.6758 15.1907 25.5704C15.2962 25.4649 15.3554 25.3218 15.3554 25.1726C15.3554 25.0234 15.2962 24.8804 15.1907 24.7749C15.0852 24.6694 14.9421 24.6101 14.7929 24.6101H14.7305C14.5813 24.6101 14.4382 24.6694 14.3327 24.7749C14.2272 24.8804 14.168 25.0234 14.168 25.1726C14.168 25.3218 14.2272 25.4649 14.3327 25.5704C14.4382 25.6758 14.5813 25.7351 14.7305 25.7351ZM12.595 43.4295H12.6574C12.8066 43.4295 12.9496 43.3702 13.0551 43.2647C13.1606 43.1592 13.2199 43.0162 13.2199 42.867C13.2199 42.7178 13.1606 42.5747 13.0551 42.4692C12.9496 42.3637 12.8066 42.3045 12.6574 42.3045H12.595C12.4458 42.3045 12.3027 42.3637 12.1972 42.4692C12.0917 42.5747 12.0325 42.7178 12.0325 42.867C12.0325 43.0162 12.0917 43.1592 12.1972 43.2647C12.3027 43.3702 12.4458 43.4295 12.595 43.4295ZM27.529 44.3985H34.6795C34.8286 44.3985 34.9717 44.3392 35.0772 44.2337C35.1827 44.1282 35.242 43.9852 35.242 43.836C35.242 43.6868 35.1827 43.5437 35.0772 43.4382C34.9717 43.3327 34.8286 43.2735 34.6795 43.2735H27.529C27.3798 43.2735 27.2367 43.3327 27.1312 43.4382C27.0257 43.5437 26.9665 43.6868 26.9665 43.836C26.9665 43.9852 27.0257 44.1282 27.1312 44.2337C27.2367 44.3392 27.3798 44.3985 27.529 44.3985ZM12.595 45.3676H12.6574C12.8066 45.3676 12.9496 45.3083 13.0551 45.2028C13.1606 45.0973 13.2199 44.9543 13.2199 44.8051C13.2199 44.6559 13.1606 44.5128 13.0551 44.4073C12.9496 44.3018 12.8066 44.2426 12.6574 44.2426H12.595C12.4458 44.2426 12.3027 44.3018 12.1972 44.4073C12.0917 44.5128 12.0325 44.6559 12.0325 44.8051C12.0325 44.9543 12.0917 45.0973 12.1972 45.2028C12.3027 45.3083 12.4458 45.3676 12.595 45.3676ZM16.866 43.4295H16.9285C17.0776 43.4295 17.2207 43.3702 17.3262 43.2647C17.4317 43.1592 17.491 43.0162 17.491 42.867C17.491 42.7178 17.4317 42.5747 17.3262 42.4692C17.2207 42.3637 17.0776 42.3045 16.9285 42.3045H16.866C16.7168 42.3045 16.5738 42.3637 16.4683 42.4692C16.3628 42.5747 16.3035 42.7178 16.3035 42.867C16.3035 43.0162 16.3628 43.1592 16.4683 43.2647C16.5738 43.3702 16.7168 43.4295 16.866 43.4295ZM14.7305 43.4295H14.7929C14.9421 43.4295 15.0852 43.3702 15.1907 43.2647C15.2962 43.1592 15.3554 43.0162 15.3554 42.867C15.3554 42.7178 15.2962 42.5747 15.1907 42.4692C15.0852 42.3637 14.9421 42.3045 14.7929 42.3045H14.7305C14.5813 42.3045 14.4382 42.3637 14.3327 42.4692C14.2272 42.5747 14.168 42.7178 14.168 42.867C14.168 43.0162 14.2272 43.1592 14.3327 43.2647C14.4382 43.3702 14.5813 43.4295 14.7305 43.4295ZM16.866 45.3676H16.9285C17.0776 45.3676 17.2207 45.3083 17.3262 45.2028C17.4317 45.0973 17.491 44.9543 17.491 44.8051C17.491 44.6559 17.4317 44.5128 17.3262 44.4073C17.2207 44.3018 17.0776 44.2426 16.9285 44.2426H16.866C16.7168 44.2426 16.5738 44.3018 16.4683 44.4073C16.3628 44.5128 16.3035 44.6559 16.3035 44.8051C16.3035 44.9543 16.3628 45.0973 16.4683 45.2028C16.5738 45.3083 16.7168 45.3676 16.866 45.3676ZM14.7305 45.3676H14.7929C14.9421 45.3676 15.0852 45.3083 15.1907 45.2028C15.2962 45.0973 15.3554 44.9543 15.3554 44.8051C15.3554 44.6559 15.2962 44.5128 15.1907 44.4073C15.0852 44.3018 14.9421 44.2426 14.7929 44.2426H14.7305C14.5813 44.2426 14.4382 44.3018 14.3327 44.4073C14.2272 44.5128 14.168 44.6559 14.168 44.8051C14.168 44.9543 14.2272 45.0973 14.3327 45.2028C14.4382 45.3083 14.5813 45.3676 14.7305 45.3676ZM15.093 34.5823H15.1555C15.3046 34.5823 15.4477 34.523 15.5532 34.4175C15.6587 34.3121 15.718 34.169 15.718 34.0198C15.718 33.8706 15.6587 33.7275 15.5532 33.6221C15.4477 33.5166 15.3046 33.4573 15.1555 33.4573H15.093C14.9438 33.4573 14.8008 33.5166 14.6953 33.6221C14.5898 33.7275 14.5305 33.8706 14.5305 34.0198C14.5305 34.169 14.5898 34.3121 14.6953 34.4175C14.8008 34.523 14.9438 34.5823 15.093 34.5823ZM15.093 36.5204H15.1555C15.3046 36.5204 15.4477 36.4611 15.5532 36.3556C15.6587 36.2501 15.718 36.1071 15.718 35.9579C15.718 35.8087 15.6587 35.6656 15.5532 35.5601C15.4477 35.4547 15.3046 35.3954 15.1555 35.3954H15.093C14.9438 35.3954 14.8008 35.4547 14.6953 35.5601C14.5898 35.6656 14.5305 35.8087 14.5305 35.9579C14.5305 36.1071 14.5898 36.2501 14.6953 36.3556C14.8008 36.4611 14.9438 36.5204 15.093 36.5204ZM12.9575 34.5823H13.02C13.1692 34.5823 13.3123 34.523 13.4178 34.4175C13.5232 34.3121 13.5825 34.169 13.5825 34.0198C13.5825 33.8706 13.5232 33.7275 13.4178 33.6221C13.3123 33.5166 13.1692 33.4573 13.02 33.4573H12.9575C12.8083 33.4573 12.6652 33.5166 12.5597 33.6221C12.4542 33.7275 12.395 33.8706 12.395 34.0198C12.395 34.169 12.4542 34.3121 12.5597 34.4175C12.6652 34.523 12.8083 34.5823 12.9575 34.5823ZM12.9575 36.5204H13.02C13.1692 36.5204 13.3123 36.4611 13.4178 36.3556C13.5232 36.2501 13.5825 36.1071 13.5825 35.9579C13.5825 35.8087 13.5232 35.6656 13.4178 35.5601C13.3123 35.4547 13.1692 35.3954 13.02 35.3954H12.9575C12.8083 35.3954 12.6652 35.4547 12.5597 35.5601C12.4542 35.6656 12.395 35.8087 12.395 35.9579C12.395 36.1071 12.4542 36.2501 12.5597 36.3556C12.6652 36.4611 12.8083 36.5204 12.9575 36.5204ZM27.8915 35.5513H35.0421C35.1913 35.5513 35.3343 35.492 35.4398 35.3865C35.5453 35.2811 35.6046 35.138 35.6046 34.9888C35.6046 34.8396 35.5453 34.6965 35.4398 34.5911C35.3343 34.4856 35.1913 34.4263 35.0421 34.4263H27.8915C27.7423 34.4263 27.5992 34.4856 27.4937 34.5911C27.3882 34.6965 27.329 34.8396 27.329 34.9888C27.329 35.138 27.3882 35.2811 27.4937 35.3865C27.5992 35.492 27.7423 35.5513 27.8915 35.5513ZM17.2285 36.5204H17.291C17.4402 36.5204 17.5832 36.4611 17.6887 36.3556C17.7942 36.2501 17.8535 36.1071 17.8535 35.9579C17.8535 35.8087 17.7942 35.6656 17.6887 35.5601C17.5832 35.4547 17.4402 35.3954 17.291 35.3954H17.2285C17.0794 35.3954 16.9363 35.4547 16.8308 35.5601C16.7253 35.6656 16.666 35.8087 16.666 35.9579C16.666 36.1071 16.7253 36.2501 16.8308 36.3556C16.9363 36.4611 17.0794 36.5204 17.2285 36.5204ZM17.2285 34.5823H17.291C17.4402 34.5823 17.5832 34.523 17.6887 34.4175C17.7942 34.3121 17.8535 34.169 17.8535 34.0198C17.8535 33.8706 17.7942 33.7275 17.6887 33.6221C17.5832 33.5166 17.4402 33.4573 17.291 33.4573H17.2285C17.0794 33.4573 16.9363 33.5166 16.8308 33.6221C16.7253 33.7275 16.666 33.8706 16.666 34.0198C16.666 34.169 16.7253 34.3121 16.8308 34.4175C16.9363 34.523 17.0794 34.5823 17.2285 34.5823ZM47.4385 32.1819C47.3656 32.3316 47.252 32.4576 47.1106 32.5456C46.9693 32.6336 46.8061 32.6799 46.6396 32.6793H45.727V40.661C45.727 41.3326 45.1805 41.879 44.5089 41.879H42.1739C41.5023 41.879 40.9559 41.3326 40.9559 40.661V32.6793H40.0433C39.8768 32.6799 39.7135 32.6336 39.5722 32.5456C39.4309 32.4576 39.3173 32.3315 39.2444 32.1818C39.1703 32.0328 39.1398 31.8658 39.1564 31.7002C39.173 31.5345 39.236 31.377 39.3382 31.2455L42.6362 26.9657C42.806 26.7452 43.063 26.6188 43.3414 26.6188C43.6197 26.6188 43.8769 26.7454 44.0467 26.9659L47.3446 31.2456C47.4468 31.3771 47.5098 31.5346 47.5264 31.7003C47.543 31.8659 47.5125 32.0329 47.4384 32.1819H47.4385ZM46.1623 31.5543L43.3414 27.8936L40.5205 31.5543H41.5185C41.6677 31.5543 41.8108 31.6135 41.9163 31.719C42.0218 31.8245 42.081 31.9676 42.081 32.1168V40.661C42.081 40.7114 42.1237 40.754 42.174 40.754H44.509C44.5594 40.754 44.602 40.7114 44.602 40.661V32.1168C44.602 31.9676 44.6613 31.8245 44.7668 31.719C44.8723 31.6135 45.0154 31.5543 45.1645 31.5543H46.1624H46.1623ZM34.2858 20.9424V22.4893H36.813C37.5742 22.4893 38.1935 23.1085 38.1935 23.8698V28.4134C38.1935 29.1745 37.5743 29.7938 36.813 29.7938H34.2858V31.3366H36.813C37.5742 31.3366 38.1935 31.9558 38.1935 32.717V37.2606C38.1935 38.0218 37.5743 38.6411 36.813 38.6411H34.2858V40.1839H36.813C37.5742 40.1839 38.1935 40.8031 38.1935 41.5643V46.1079C38.1935 46.8691 37.5743 47.4884 36.813 47.4884H11.1866C10.4255 47.4884 9.80617 46.8692 9.80617 46.1079V41.5643C9.80617 40.8032 10.4254 40.1839 11.1866 40.1839H13.7139V38.6411H11.1866C10.4255 38.6411 9.80617 38.0219 9.80617 37.2606V32.717C9.80617 31.9559 10.4254 31.3366 11.1866 31.3366H13.7139V29.7938H11.1866C10.4255 29.7938 9.80617 29.1746 9.80617 28.4134V23.8698C9.80617 23.1086 10.4254 22.4893 11.1866 22.4893H13.7139V20.9406C11.0265 20.826 8.87204 18.5983 8.87204 15.8927C8.87204 13.3505 10.7734 11.2292 13.2287 10.8869C13.1115 9.79855 13.3641 8.66549 13.9538 7.6948C14.644 6.55845 15.7323 5.74339 16.9394 5.4583C18.1984 5.16111 19.5615 5.3938 20.6824 6.06552C21.0106 4.57395 21.809 3.2338 22.9871 2.22242C24.4132 0.998236 26.2309 0.397204 28.1057 0.529767C29.9804 0.662329 31.6956 1.5133 32.9351 2.92583C34.0482 4.19427 34.6625 5.78408 34.6951 7.45367C38.1547 7.74533 40.8805 10.6543 40.8805 14.188C40.8805 17.8597 37.9368 20.8549 34.2858 20.9424ZM13.895 19.8215H34.122C37.2283 19.8215 39.7555 17.2943 39.7555 14.188C39.7555 11.0817 37.2283 8.55467 34.122 8.55467C34.0453 8.55468 33.9694 8.539 33.899 8.5086C33.8286 8.4782 33.7651 8.43372 33.7126 8.37789C33.66 8.32206 33.6194 8.25607 33.5932 8.18396C33.5671 8.11186 33.556 8.03517 33.5605 7.95861C33.7546 4.71064 31.2719 1.88145 28.0263 1.65195C24.7806 1.42311 21.9247 3.87411 21.6597 7.11702C21.6512 7.22173 21.6135 7.32196 21.551 7.40635C21.4884 7.49075 21.4035 7.55593 21.3057 7.59452C21.208 7.6331 21.1015 7.64355 20.9981 7.62467C20.8948 7.60579 20.7988 7.55834 20.721 7.4877C19.9863 6.82077 19.015 6.45514 18.0491 6.45514C17.7628 6.45514 17.477 6.4872 17.198 6.55311C16.2821 6.76939 15.4501 7.39836 14.9152 8.27886C14.3619 9.18964 14.1872 10.2776 14.4359 11.2637C14.4567 11.3463 14.4585 11.4325 14.4411 11.5159C14.4237 11.5993 14.3876 11.6777 14.3355 11.7451C14.2834 11.8125 14.2167 11.8672 14.1404 11.9051C14.0641 11.943 13.9802 11.9631 13.895 11.9638C11.7457 11.9808 9.99704 13.7431 9.99704 15.8926C9.99704 18.0421 11.7457 19.8045 13.895 19.8214V19.8215ZM36.813 41.3087H11.1866C11.0482 41.3087 10.9312 41.4257 10.9312 41.5641V46.1077C10.9312 46.2462 11.0482 46.3632 11.1866 46.3632H36.813C36.9515 46.3632 37.0685 46.2462 37.0685 46.1077V41.5641C37.0685 41.4257 36.9515 41.3087 36.813 41.3087ZM33.1608 38.6409H14.8389V40.1837H33.1609L33.1608 38.6409ZM36.813 32.4615H11.1866C11.0482 32.4615 10.9312 32.5785 10.9312 32.717V37.2605C10.9312 37.399 11.0482 37.516 11.1866 37.516H36.813C36.9515 37.516 37.0685 37.399 37.0685 37.2605V32.717C37.0685 32.5785 36.9515 32.4615 36.813 32.4615ZM33.1608 29.7937H14.8389V31.3365H33.1609L33.1608 29.7937ZM36.813 23.6143H11.1866C11.0482 23.6143 10.9312 23.7313 10.9312 23.8698V28.4134C10.9312 28.5518 11.0482 28.6688 11.1866 28.6688H36.813C36.9515 28.6688 37.0685 28.5518 37.0685 28.4134V23.8698C37.0685 23.7313 36.9515 23.6143 36.813 23.6143ZM33.1608 22.4893V20.9465H14.8389V22.4893H33.1608ZM26.761 3.90842C27.8641 3.69758 28.9295 3.91217 29.7611 4.51264C30.5905 5.11142 31.1242 6.02502 31.264 7.08505C31.2835 7.23295 31.3609 7.36705 31.4793 7.45784C31.5977 7.54863 31.7473 7.58868 31.8952 7.56917C32.0431 7.54967 32.1772 7.47221 32.268 7.35383C32.3588 7.23545 32.3988 7.08586 32.3793 6.93795C32.2013 5.58758 31.487 4.37117 30.4197 3.60055C29.3345 2.81699 27.9602 2.53377 26.5498 2.80349C26.4773 2.81735 26.4082 2.84538 26.3464 2.88596C26.2847 2.92654 26.2316 2.97888 26.1901 3.03999C26.1486 3.1011 26.1195 3.16979 26.1046 3.24213C26.0896 3.31447 26.0891 3.38905 26.1029 3.46161C26.1168 3.53417 26.1448 3.60328 26.1854 3.66501C26.226 3.72674 26.2783 3.77987 26.3394 3.82137C26.4005 3.86287 26.4692 3.89192 26.5416 3.90687C26.6139 3.92183 26.6885 3.92229 26.761 3.90842ZM8.75514 36.3157C8.82924 36.4648 8.85975 36.6318 8.84317 36.7975C8.82658 36.9631 8.76357 37.1208 8.66139 37.2522L5.36336 41.5321C5.19348 41.7526 4.93651 41.879 4.65826 41.879C4.38001 41.879 4.12295 41.7525 3.95307 41.5321L0.654856 37.2521C0.552717 37.1207 0.489736 36.9631 0.473152 36.7975C0.456568 36.6318 0.487054 36.4649 0.561106 36.3158C0.634006 36.1662 0.747634 36.0401 0.888939 35.9522C1.03024 35.8642 1.1935 35.8179 1.35995 35.8185H2.27261V27.8368C2.27261 27.1652 2.81898 26.6188 3.49061 26.6188H5.82554C6.49717 26.6188 7.04354 27.1652 7.04354 27.8368V35.8185H7.9562C8.12265 35.8178 8.28591 35.8641 8.42722 35.9521C8.56853 36.04 8.68225 36.1661 8.75514 36.3157ZM7.47901 36.9435H6.48104C6.33186 36.9435 6.18879 36.8842 6.0833 36.7787C5.97781 36.6732 5.91854 36.5302 5.91854 36.381V27.8368C5.91854 27.7864 5.87589 27.7438 5.82554 27.7438H3.49061C3.44017 27.7438 3.39761 27.7864 3.39761 27.8368V36.381C3.39761 36.5302 3.33834 36.6732 3.23285 36.7787C3.12736 36.8842 2.98429 36.9435 2.83511 36.9435H1.83714L4.65807 40.6041L7.47901 36.9435Z" fill="#00828E"/>
</g>
<defs>
<clipPath id="clip0_2714_63">
<rect width="48" height="48" fill="white"/>
</clipPath>
</defs>
</svg>
