<svg width="48" height="48" viewBox="0 0 48 48" fill="none" xmlns="http://www.w3.org/2000/svg">
<path d="M18.7509 20.2198L22.1484 22.9385L22.8534 22.061L18.7509 18.7798L14.6484 22.061L15.3534 22.9385L18.7509 20.2198ZM29.2509 20.2198L32.6484 22.9385L33.3534 22.061L29.2509 18.7798L25.1484 22.061L25.8534 22.9385L29.2509 20.2198Z" fill="#00828E"/>
<path d="M37.5 15.9375H36.5138C36.2438 14.2387 34.7738 12.9375 33 12.9375H24.5625V9.50625C25.845 9.24375 26.8125 8.1075 26.8125 6.75C26.8125 5.1975 25.5525 3.9375 24 3.9375C22.4475 3.9375 21.1875 5.1975 21.1875 6.75C21.1875 8.1075 22.155 9.24375 23.4375 9.50625V12.9375H15C13.2262 12.9375 11.7562 14.2387 11.4862 15.9375H10.5C8.535 15.9375 6.9375 17.535 6.9375 19.5V34.5C6.9375 36.465 8.535 38.0625 10.5 38.0625H20.3962C20.1112 40.2337 18.3 42.3487 17.7562 42.9375H15V44.0625H33V42.9375H30.2438C29.7 42.3487 27.8888 40.2337 27.6038 38.0625H37.5C39.465 38.0625 41.0625 36.465 41.0625 34.5V19.5C41.0625 17.535 39.465 15.9375 37.5 15.9375ZM22.3125 6.75C22.3125 5.82 23.07 5.0625 24 5.0625C24.93 5.0625 25.6875 5.82 25.6875 6.75C25.6875 7.68 24.93 8.4375 24 8.4375C23.07 8.4375 22.3125 7.68 22.3125 6.75ZM12.5625 16.5C12.5625 15.1575 13.6575 14.0625 15 14.0625H33C34.3425 14.0625 35.4375 15.1575 35.4375 16.5V25.5C35.4375 26.8425 34.3425 27.9375 33 27.9375H15C13.6575 27.9375 12.5625 26.8425 12.5625 25.5V16.5ZM28.7625 42.9375H19.2375C20.0962 41.865 21.3225 40.02 21.5287 38.0625H26.4675C26.6738 40.02 27.9038 41.865 28.7588 42.9375H28.7625ZM39.9375 34.5C39.9375 35.8425 38.8425 36.9375 37.5 36.9375H10.5C9.1575 36.9375 8.0625 35.8425 8.0625 34.5V19.5C8.0625 18.1575 9.1575 17.0625 10.5 17.0625H11.4375V25.5C11.4375 27.465 13.035 29.0625 15 29.0625H33C34.965 29.0625 36.5625 27.465 36.5625 25.5V17.0625H37.5C38.8425 17.0625 39.9375 18.1575 39.9375 19.5V34.5Z" fill="#00828E"/>
</svg>
