<svg width="48" height="48" viewBox="0 0 48 48" fill="none" xmlns="http://www.w3.org/2000/svg">
<path d="M42.2412 7.30909C43.1939 7.30909 43.9649 6.53818 43.9649 5.58545C43.9649 4.63273 43.1939 3.86182 42.2412 3.86182C41.2885 3.86182 40.5176 4.63273 40.5176 5.58545C40.5176 6.53818 41.2958 7.30909 42.2412 7.30909ZM42.2412 5.09091C42.5176 5.09091 42.743 5.31636 42.743 5.59273C42.743 5.86909 42.5176 6.09454 42.2412 6.09454C41.9576 6.09454 41.7394 5.87636 41.7394 5.59273C41.7394 5.30909 41.9649 5.09091 42.2412 5.09091Z" fill="#00828E"/>
<path d="M44.1534 1.07617H8.72066C7.37521 1.07617 6.27702 2.17435 6.27702 3.51981V7.25072H3.84793C2.50248 7.25072 1.4043 8.3489 1.4043 9.69435V40.3344C1.4043 41.6798 2.50248 42.778 3.84793 42.778H20.0879V46.3125C20.0879 46.6471 20.3643 46.9234 20.6988 46.9234H32.1752C32.5098 46.9234 32.7861 46.6471 32.7861 46.3125V42.778H39.2807C40.6261 42.778 41.7243 41.6798 41.7243 40.3344V36.6034H44.1534C45.4988 36.6034 46.597 35.5053 46.597 34.1598V3.51981C46.597 2.17435 45.4988 1.07617 44.1534 1.07617ZM7.49884 3.51981C7.49884 2.84344 8.05157 2.29799 8.72066 2.29799H44.1534C44.8297 2.29799 45.3752 2.85072 45.3752 3.51981V8.87981H22.1898L19.4625 6.05072C19.2516 5.83254 18.9607 5.7089 18.6625 5.7089H12.6552C12.0443 5.7089 11.5425 6.21072 11.5425 6.82163V8.87981H7.49884V3.51981ZM3.84793 41.5634C3.17157 41.5634 2.62611 41.0107 2.62611 40.3416V9.69435C2.62611 9.01799 3.17884 8.47254 3.84793 8.47254H6.27702V34.1671C6.27702 35.5125 7.37521 36.6107 8.72066 36.6107H21.9861C22.2261 37.0762 22.3352 37.5998 22.2916 38.138H21.3461C20.6479 38.138 20.0879 38.7053 20.0879 39.3962V41.5634H3.84793ZM25.8334 28.7707C25.957 28.5525 26.1825 28.4144 26.437 28.4144C26.8152 28.4144 27.1207 28.7198 27.1207 29.098C27.1207 29.3453 26.9897 29.5707 26.7788 29.6944C26.5461 29.8325 26.2697 29.818 25.9861 29.658C25.9486 29.6387 25.9181 29.6082 25.8988 29.5707C25.6661 29.1998 25.7607 28.9089 25.8334 28.7707ZM25.8261 27.3089C25.3779 27.4579 25.0018 27.7692 24.7716 28.1816C24.4225 28.8071 24.4661 29.5707 24.8734 30.2253C25.0043 30.4289 25.1788 30.5962 25.3897 30.7198C25.7243 30.9089 26.0879 31.0107 26.4443 31.0107C26.7788 31.0107 27.1061 30.9234 27.397 30.7562C27.9788 30.4144 28.3425 29.7816 28.3425 29.1053C28.3425 28.2689 27.797 27.5634 27.0479 27.3089V24.1671L32.4516 33.9198C32.4443 33.9271 32.437 33.9416 32.4152 33.9489C30.5025 34.4434 29.2516 36.2325 29.3534 38.138H23.5279C23.637 36.2253 22.3788 34.4362 20.4298 33.8907L25.8261 24.1671V27.3089ZM31.5643 45.7016H21.3097L21.3461 39.3525H31.5279C31.5497 39.3525 31.5643 39.3671 31.5643 39.3889V45.7016ZM40.5025 40.3344C40.5025 41.0107 39.9497 41.5562 39.2807 41.5562H32.7861V39.3889C32.7861 38.6907 32.2188 38.1307 31.5279 38.1307H30.5825C30.5388 37.5925 30.6552 37.0689 30.8879 36.6034H40.5025V40.3344ZM44.1534 35.3889H32.0734C32.2697 35.2798 32.4807 35.1853 32.7134 35.1271C33.0988 35.0253 33.4116 34.7562 33.5716 34.3925C33.7243 34.0362 33.7025 33.6362 33.5134 33.2944L27.2588 22.0289C27.0988 21.7307 26.7861 21.5416 26.4443 21.5416C26.0952 21.5489 25.7825 21.7234 25.6152 22.0216L19.3534 33.2944C19.1643 33.6362 19.1498 34.0434 19.3025 34.3998C19.4552 34.7634 19.7679 35.0253 20.1534 35.1271C20.3861 35.1853 20.5898 35.2798 20.7934 35.3889H8.72066C8.0443 35.3889 7.49884 34.8362 7.49884 34.1671V10.1016H11.6443C12.2552 10.1016 12.757 9.59981 12.757 8.9889V6.93072H18.6116L21.3388 9.75981C21.5498 9.97799 21.8407 10.1016 22.1388 10.1016H45.3752V34.1598C45.3752 34.8362 44.8297 35.3889 44.1534 35.3889Z" fill="#00828E"/>
<path d="M38.08 7.30909C39.0327 7.30909 39.8036 6.53818 39.8036 5.58545C39.8036 4.63273 39.0327 3.86182 38.08 3.86182C37.1273 3.86182 36.3564 4.63273 36.3564 5.58545C36.3564 6.53818 37.1273 7.30909 38.08 7.30909ZM38.08 5.09091C38.3564 5.09091 38.5818 5.31636 38.5818 5.59273C38.5818 5.86909 38.3564 6.09454 38.08 6.09454C37.7964 6.09454 37.5782 5.87636 37.5782 5.59273C37.5782 5.30909 37.8036 5.09091 38.08 5.09091ZM33.9127 7.30909C34.8655 7.30909 35.6364 6.53818 35.6364 5.58545C35.6364 4.63273 34.8655 3.86182 33.9127 3.86182C32.96 3.86182 32.1891 4.63273 32.1891 5.58545C32.1891 6.53818 32.96 7.30909 33.9127 7.30909ZM33.9127 5.09091C34.1891 5.09091 34.4146 5.31636 34.4146 5.59273C34.4146 5.86909 34.1891 6.09454 33.9127 6.09454C33.6291 6.09454 33.4109 5.87636 33.4109 5.59273C33.4109 5.30909 33.6364 5.09091 33.9127 5.09091ZM38.2109 15.4255C37.8546 15.7818 37.6291 16.2327 37.5418 16.7127H28.9964V15.7527C28.9964 15.0982 28.4655 14.5673 27.8109 14.5673H25.0546C24.4 14.5673 23.8691 15.0982 23.8691 15.7527V16.7127H15.3309C15.2509 16.24 15.0255 15.7891 14.6618 15.4182C13.7382 14.5091 12.16 14.5236 11.2582 15.4255C10.8 15.8836 10.5527 16.4873 10.5527 17.1273C10.5527 17.7745 10.8073 18.3855 11.2582 18.8291C11.7164 19.3018 12.3273 19.5418 12.96 19.5418C13.36 19.5418 13.7673 19.4473 14.1527 19.2509C14.5728 19.0358 14.9102 18.6881 15.1127 18.2618C15.1636 18.1527 15.2073 18.0436 15.2436 17.9345H21.1709C17.9491 19.5055 15.52 22.4582 14.6764 26.0218H13.7309C13.0764 26.0218 12.5455 26.5527 12.5455 27.2073V29.9636C12.5455 30.6182 13.0764 31.1491 13.7309 31.1491H16.4873C17.1418 31.1491 17.6727 30.6182 17.6727 29.9636V27.2073C17.6727 26.5527 17.1418 26.0218 16.4873 26.0218H15.9346C16.9527 22.1818 20.0291 19.1709 23.8909 18.24V18.5018C23.8909 19.1564 24.4218 19.6873 25.0764 19.6873H27.8327C28.4873 19.6873 29.0182 19.1564 29.0182 18.5018V18.24C32.8727 19.1709 35.9491 22.1818 36.9746 26.0218H36.4727C35.8182 26.0218 35.2873 26.5527 35.2873 27.2073V29.9636C35.2873 30.6182 35.8182 31.1491 36.4727 31.1491H39.2291C39.8836 31.1491 40.4146 30.6182 40.4146 29.9636V27.2073C40.4146 26.5527 39.8836 26.0218 39.2291 26.0218H38.2327C37.3818 22.4582 34.9527 19.4982 31.7382 17.9345H37.68C37.7964 18.2691 37.9855 18.5745 38.24 18.8291C38.6982 19.3018 39.3091 19.5418 39.9418 19.5418C40.3418 19.5418 40.7491 19.4473 41.1346 19.2509C41.5546 19.0358 41.8921 18.6881 42.0946 18.2618C42.5673 17.2655 42.4 16.1818 41.6509 15.4182C40.6982 14.5164 39.12 14.5236 38.2109 15.4255ZM14 17.7455C13.9127 17.92 13.7673 18.0727 13.5927 18.16C12.96 18.48 12.4146 18.2764 12.1164 17.9636C11.8909 17.7455 11.7673 17.4473 11.7673 17.1273C11.7673 16.8145 11.8909 16.5164 12.1164 16.2836C12.3418 16.0582 12.64 15.9345 12.96 15.9345C13.2727 15.9345 13.5782 16.0582 13.7964 16.2764C14.1746 16.6691 14.2473 17.2145 14 17.7455ZM16.4727 29.9273L13.7527 29.9636L13.7164 27.2436H16.4364L16.4727 29.9273ZM39.2073 29.9273L36.4873 29.9636L36.4509 27.2436H39.1709L39.2073 29.9273ZM25.0982 18.5091L25.0836 17.5927C25.0982 17.5273 25.0982 17.4618 25.0909 17.3891V17.3818C25.0909 17.36 25.1055 17.3455 25.1055 17.3236C25.1055 17.2873 25.0909 17.2582 25.0836 17.2291L25.0618 15.7964H27.7818L27.8036 17.2291C27.7964 17.2655 27.7818 17.2945 27.7818 17.3309C27.7818 17.3527 27.7891 17.3673 27.7964 17.3891V17.3964C27.7818 17.4909 27.7891 17.5782 27.8109 17.6582L27.8255 18.48L25.0982 18.5091ZM40.96 17.7455C40.8727 17.92 40.7273 18.0727 40.5527 18.16C39.92 18.48 39.3746 18.2764 39.0764 17.9636C38.8509 17.7455 38.7273 17.4473 38.7273 17.1273C38.7273 16.8145 38.8509 16.5164 39.0764 16.2836C39.3018 16.0582 39.6 15.9345 39.92 15.9345C40.2327 15.9345 40.5382 16.0582 40.7564 16.2764C41.1346 16.6691 41.2073 17.2145 40.96 17.7455Z" fill="#00828E"/>
</svg>
