<svg width="48" height="48" viewBox="0 0 48 48" fill="none" xmlns="http://www.w3.org/2000/svg">
<path d="M4.88715 4.92798C4.83988 4.93525 4.79988 4.94834 4.75843 4.96216C4.7177 4.98252 4.67625 5.00289 4.64206 5.02979C4.60424 5.05139 4.57011 5.07889 4.54097 5.11125C4.44407 5.20504 4.37789 5.326 4.35114 5.45818C4.32439 5.59035 4.33835 5.72753 4.39115 5.85161C4.42639 5.93341 4.47728 6.00753 4.54097 6.06979C4.57006 6.10431 4.60443 6.13401 4.64279 6.15779C4.67625 6.17816 4.7177 6.20507 4.75843 6.21889C4.79875 6.23958 4.84227 6.25335 4.88715 6.25961C4.92788 6.26689 4.97588 6.27343 5.01588 6.27343C5.10586 6.27324 5.1949 6.25514 5.27781 6.22017C5.36072 6.18521 5.43584 6.13409 5.49879 6.06979C5.56227 6.00735 5.61313 5.93328 5.64861 5.85161C5.68113 5.76973 5.69719 5.68225 5.69588 5.59416C5.69754 5.5045 5.68092 5.41545 5.64703 5.33242C5.61315 5.2494 5.56271 5.17414 5.49879 5.11125C5.41982 5.03292 5.32278 4.97523 5.21624 4.94327C5.1097 4.91131 4.99693 4.90605 4.88788 4.92798H4.88715ZM8.08061 5.02979C8.04139 5.00462 8.00058 4.98203 7.95843 4.96216C7.91862 4.9477 7.87778 4.93627 7.83625 4.92798C7.70429 4.90129 7.56745 4.91316 7.44206 4.96216C7.35953 4.99889 7.2838 5.04929 7.21806 5.11125C7.09283 5.24096 7.02227 5.41386 7.02097 5.59416C7.02097 5.77089 7.09588 5.94689 7.21734 6.07634C7.34679 6.19852 7.52352 6.2727 7.70025 6.2727C7.74752 6.2727 7.78825 6.26689 7.83625 6.25961C7.87882 6.25239 7.92003 6.23866 7.95843 6.21889C7.99915 6.20507 8.03988 6.17816 8.08061 6.15779L8.18243 6.07634C8.24352 6.00798 8.29152 5.93379 8.32497 5.85161C8.36319 5.77129 8.38188 5.68308 8.37952 5.59416C8.37822 5.41386 8.30766 5.24096 8.18243 5.11125C8.15185 5.08014 8.11767 5.05279 8.08061 5.02979ZM10.8595 5.11125C10.6152 4.86034 10.1533 4.86034 9.9017 5.11125C9.84061 5.17234 9.79261 5.24725 9.75261 5.32943C9.72012 5.41387 9.70383 5.50368 9.70461 5.59416C9.70461 5.77089 9.77225 5.94689 9.90097 6.06979C10.029 6.19846 10.2024 6.27161 10.3839 6.27343C10.4727 6.27301 10.5606 6.25477 10.6423 6.21979C10.724 6.18481 10.7979 6.13381 10.8595 6.06979C10.9235 6.00815 10.9745 5.9343 11.0095 5.8526C11.0445 5.77091 11.0627 5.68303 11.0632 5.59416C11.0632 5.50543 11.0428 5.41743 11.0093 5.3287C10.9763 5.24593 10.9251 5.17163 10.8595 5.11125Z" fill="#00828E"/>
<path d="M44.3825 1.57812H27.3956C26.8551 1.5787 26.3369 1.79366 25.9547 2.17584C25.5726 2.55802 25.3576 3.07619 25.357 3.61667V14.3294C25.3323 14.3287 25.309 14.3221 25.2843 14.3221H22.7047C22.6829 14.3221 22.6618 14.3279 22.6407 14.3287V3.61667C22.6399 3.07632 22.4249 2.55833 22.0427 2.17631C21.6605 1.79429 21.1425 1.57943 20.6021 1.57885H3.61594C3.07572 1.57962 2.55784 1.79457 2.17584 2.17657C1.79384 2.55856 1.57889 3.07644 1.57812 3.61667V32.3709C1.5787 32.9112 1.79356 33.4293 2.17558 33.8114C2.5576 34.1936 3.07559 34.4086 3.61594 34.4094H12.0538C12.3035 35.149 12.6217 35.8636 13.0043 36.5439L11.5599 38.5003C11.3489 38.7919 11.2273 39.1386 11.2101 39.4981C11.2024 39.7416 11.2452 39.9839 11.3358 40.21C11.4265 40.4361 11.5629 40.6409 11.7367 40.8116L13.565 42.6305C14.1759 43.2559 15.1723 43.3316 15.8756 42.8072L17.8429 41.3745C18.7065 41.8612 19.6253 42.2428 20.5796 42.5112L20.9359 44.9279C21.0076 45.3453 21.2243 45.724 21.5479 45.9972C21.8715 46.2703 22.2812 46.4205 22.7047 46.421H25.2843C26.1679 46.421 26.9265 45.7694 27.0458 44.9141L27.4167 42.5119C28.3706 42.2408 29.2905 41.8616 30.1585 41.3818L32.1265 42.829C32.8407 43.341 33.8312 43.2538 34.4167 42.6385L36.2712 40.8029C36.7527 40.3061 36.9076 39.5927 36.6741 38.9679C36.6244 38.7952 36.5422 38.6335 36.4319 38.4916L34.9927 36.5418C35.3767 35.8574 35.693 35.1432 35.9439 34.4094H44.3825C44.9228 34.4086 45.4408 34.1936 45.8228 33.8114C46.2049 33.4293 46.4197 32.9112 46.4203 32.3709V3.61667C46.4195 3.07644 46.2046 2.55856 45.8226 2.17657C45.4406 1.79457 44.9227 1.57889 44.3825 1.57812ZM26.717 3.61667C26.717 3.24213 27.0218 2.9374 27.3963 2.9374H44.3825C44.757 2.9374 45.0618 3.24285 45.0618 3.61667V8.24722H26.717V3.61667ZM2.93667 3.61667C2.93667 3.24213 3.2414 2.9374 3.61594 2.9374H20.6029C20.9774 2.9374 21.2821 3.24285 21.2821 3.61667V8.24722H2.9374L2.93667 3.61667ZM2.93667 32.3709V9.60576H21.2814V15.0421C21.1031 15.2777 20.9837 15.5525 20.933 15.8436L20.5796 18.2385C20.1599 18.357 19.7636 18.4945 19.3767 18.6581C19.2553 18.6996 19.1356 18.7462 19.0181 18.7978C18.6254 18.9592 18.2327 19.1505 17.829 19.3781L15.8749 17.9359C15.1519 17.4123 14.1803 17.4909 13.5701 18.1178L11.7476 19.9403C11.1105 20.5461 11.0334 21.5447 11.5658 22.2618L13.0043 24.2094C12.515 25.0762 12.1305 25.998 11.8589 26.9556L9.46613 27.325C8.60213 27.4596 7.95049 28.2123 7.95049 29.0778V31.6763C7.95049 32.229 8.20213 32.7236 8.60722 33.0509H3.61594C3.43572 33.0507 3.26295 32.9789 3.13558 32.8514C3.00821 32.7239 2.93667 32.5511 2.93667 32.3709ZM35.3599 39.3127C35.3687 39.3534 35.3818 39.3949 35.3978 39.4341C35.4227 39.5046 35.4273 39.5807 35.411 39.6536C35.3946 39.7266 35.358 39.7934 35.3054 39.8465L33.4472 41.6865C33.379 41.7538 33.2893 41.795 33.1938 41.8027C33.0983 41.8104 33.0031 41.7842 32.925 41.7287L30.605 40.0247C30.4973 39.9454 30.3685 39.8996 30.2349 39.8932C30.1012 39.8867 29.9687 39.9198 29.8538 39.9883C28.8577 40.586 27.7779 41.0314 26.6501 41.3098C26.5198 41.3417 26.402 41.4115 26.3114 41.5104C26.2207 41.6093 26.1615 41.7328 26.141 41.8654L25.7018 44.7163C25.6854 44.8145 25.6341 44.9036 25.5575 44.9671C25.4808 45.0307 25.3839 45.0645 25.2843 45.0625H22.7047C22.604 45.0613 22.5069 45.0257 22.4292 44.9617C22.3516 44.8977 22.2981 44.809 22.2778 44.7105L21.8581 41.8698C21.8385 41.7364 21.7796 41.6119 21.6889 41.5122C21.5982 41.4125 21.4799 41.342 21.349 41.3098C20.224 41.0374 19.1486 40.5903 18.1621 39.9847C18.047 39.9142 17.9137 39.8793 17.7788 39.8845C17.644 39.8897 17.5136 39.9347 17.4043 40.0138L15.0698 41.7127C14.9909 41.7742 14.892 41.8044 14.7922 41.7973C14.6924 41.7901 14.5987 41.7463 14.5294 41.6741L12.6967 39.8487C12.6557 39.8102 12.6231 39.7636 12.6009 39.7119C12.5788 39.6603 12.5675 39.6045 12.5679 39.5483C12.5744 39.4582 12.6061 39.3717 12.6596 39.2989L14.3643 36.989C14.4449 36.88 14.491 36.7494 14.4967 36.6139C14.5024 36.4785 14.4674 36.3444 14.3963 36.229C13.9232 35.4558 13.5458 34.6279 13.2727 33.7636C13.2727 33.7512 13.2799 33.7418 13.2799 33.7294C13.2764 33.5977 13.2336 33.4701 13.157 33.3629C13.1258 33.2516 13.0894 33.1425 13.061 33.0305C13.0286 32.9007 12.9587 32.7834 12.86 32.6931C12.7614 32.6028 12.6383 32.5436 12.5061 32.5229L9.67412 32.085C9.57426 32.0723 9.48236 32.0239 9.41529 31.9488C9.34823 31.8737 9.3105 31.777 9.30903 31.6763V29.0763C9.30903 28.8785 9.46903 28.6989 9.67412 28.6669L12.5054 28.2298C12.6379 28.2092 12.7614 28.1499 12.8603 28.0593C12.9592 27.9687 13.029 27.8509 13.061 27.7207C13.3377 26.5922 13.7882 25.5136 14.3963 24.5236C14.4674 24.4082 14.5024 24.2741 14.4967 24.1387C14.491 24.0032 14.4449 23.8726 14.3643 23.7636L12.6581 21.4523C12.5974 21.3732 12.5677 21.2746 12.5748 21.1752C12.582 21.0757 12.6253 20.9823 12.6967 20.9127L14.5367 19.0712C14.6063 19.0011 14.6988 18.9586 14.7973 18.9513C14.8958 18.9441 14.9936 18.9727 15.0727 19.0319L17.3825 20.7367C17.491 20.8169 17.621 20.8631 17.7558 20.8692C17.8907 20.8752 18.0243 20.841 18.1396 20.7709C18.5853 20.4951 19.0523 20.255 19.5359 20.053L19.605 20.0247C19.6719 19.9956 19.7359 19.9687 19.8109 19.9447C19.8338 19.938 19.8564 19.93 19.8785 19.9207C20.3389 19.7243 20.8174 19.5687 21.3425 19.4443C21.4748 19.4131 21.5947 19.3429 21.6866 19.2428C21.7785 19.1427 21.8383 19.0173 21.8581 18.8829L22.2749 16.0574C22.2927 15.9591 22.3419 15.8693 22.4152 15.8014C22.4254 15.7919 22.437 15.7854 22.4472 15.7752C22.52 15.7158 22.6107 15.6825 22.7047 15.6807H25.2843C25.4938 15.6807 25.6741 15.8334 25.7032 16.0458L26.141 18.8872C26.1825 19.1599 26.3868 19.3818 26.6559 19.4443C27.765 19.7069 28.8428 20.1527 29.8596 20.7709C29.9747 20.8412 30.1082 20.8756 30.243 20.8695C30.3778 20.8634 30.5077 20.8172 30.6159 20.7367L32.9265 19.0312C33.0058 18.9726 33.1038 18.9451 33.202 18.9538C33.3002 18.9625 33.3918 19.0069 33.4596 19.0785L35.309 20.9185C35.4479 21.0545 35.4618 21.2894 35.3381 21.4538L33.6341 23.7636C33.5539 23.8724 33.5079 24.0027 33.502 24.1379C33.4962 24.273 33.5308 24.4068 33.6014 24.5221C34.2089 25.5131 34.6596 26.592 34.9374 27.7207C35.0029 27.9869 35.2218 28.1883 35.493 28.2298L38.3323 28.6669C38.4302 28.683 38.5194 28.7327 38.5847 28.8074C38.65 28.8821 38.6872 28.9771 38.6901 29.0763V31.6756C38.6884 31.7748 38.6517 31.8702 38.5865 31.9449C38.5213 32.0197 38.4318 32.0691 38.3338 32.0843L35.493 32.5221C35.3606 32.5426 35.2372 32.6018 35.1383 32.6923C35.0394 32.7827 34.9695 32.9004 34.9374 33.0305C34.6589 34.1505 34.2094 35.2283 33.5999 36.2327C33.5299 36.3478 33.4957 36.4811 33.5018 36.6157C33.5079 36.7503 33.554 36.88 33.6341 36.9883L35.3599 39.3127ZM45.0618 32.3709C45.0616 32.5509 44.9899 32.7236 44.8626 32.851C44.7352 32.9783 44.5626 33.0499 44.3825 33.0501H39.3941C39.7978 32.7236 40.0487 32.2283 40.0487 31.6756V29.077C40.0487 28.2145 39.4014 27.4618 38.5447 27.3258L38.541 27.325L36.1396 26.9556C35.8674 25.9983 35.4826 25.0768 34.9934 24.2101L36.4305 22.2632C36.9585 21.5541 36.8836 20.5578 36.2625 19.9512L34.4298 18.1294C34.1338 17.8218 33.7358 17.6329 33.3104 17.5979C32.8849 17.563 32.4614 17.6845 32.1192 17.9396L30.1687 19.3789C29.3002 18.8894 28.376 18.5063 27.4159 18.2378L27.0472 15.8501C27.0059 15.5609 26.8923 15.2868 26.717 15.053V9.60576H45.061L45.0618 32.3709Z" fill="#00828E"/>
<path d="M29.4291 5.3285C29.408 5.28778 29.3877 5.25359 29.3673 5.21287C29.3401 5.17698 29.3104 5.14296 29.2786 5.11105C29.2494 5.07841 29.215 5.05088 29.1768 5.02959C29.1399 5.00464 29.1016 4.98205 29.0619 4.96196C29.0196 4.94747 28.9763 4.93605 28.9324 4.92778C28.8453 4.90754 28.7548 4.90754 28.6677 4.92778C28.627 4.93505 28.5797 4.94814 28.5382 4.96196C28.4982 4.98232 28.4568 5.00269 28.4233 5.02959C28.3838 5.04896 28.3491 5.07677 28.3215 5.11105C28.2873 5.14523 28.2597 5.17941 28.2328 5.21287C28.2124 5.25359 28.192 5.28778 28.1717 5.32923C28.1513 5.36923 28.144 5.4165 28.131 5.45796C28.1244 5.50523 28.1171 5.54596 28.1171 5.59396C28.1171 5.63469 28.1244 5.68123 28.1317 5.72269C28.144 5.77069 28.1513 5.81141 28.1717 5.85141C28.192 5.89287 28.2124 5.93359 28.2328 5.96778C28.2568 6.00617 28.2868 6.04053 28.3215 6.06959C28.3506 6.1041 28.385 6.1338 28.4233 6.15759C28.4568 6.17796 28.4982 6.20487 28.5382 6.21868C28.5792 6.23853 28.6228 6.25225 28.6677 6.25941C28.7084 6.26669 28.7564 6.27323 28.7964 6.27323C28.8444 6.27323 28.8851 6.26596 28.9324 6.25941C28.9773 6.25225 29.0209 6.23853 29.0619 6.21868C29.1026 6.20487 29.136 6.17796 29.1775 6.15759C29.211 6.13069 29.2517 6.10305 29.2793 6.06959C29.3137 6.04062 29.3432 6.00623 29.3666 5.96778C29.3884 5.93359 29.408 5.89287 29.4291 5.85141C29.4422 5.81141 29.456 5.77069 29.4626 5.72269C29.4757 5.68196 29.4757 5.63469 29.4757 5.59396C29.4757 5.54596 29.4757 5.50523 29.4626 5.45796C29.4546 5.41406 29.4434 5.3708 29.4291 5.3285ZM31.7382 4.96196C31.6155 4.91346 31.4814 4.90158 31.352 4.92778C31.3079 4.93514 31.2646 4.94658 31.2226 4.96196C31.1819 4.98232 31.1404 5.00269 31.1062 5.02959C31.0659 5.05062 31.0293 5.07814 30.9979 5.11105L30.9164 5.21287C30.8909 5.24875 30.8704 5.28789 30.8553 5.32923C30.8367 5.37032 30.8233 5.41356 30.8153 5.45796C30.808 5.50523 30.8008 5.54596 30.8008 5.59396C30.8008 5.68123 30.8219 5.77068 30.8553 5.85141C30.8895 5.93359 30.9368 6.00778 30.9979 6.07614C31.032 6.10305 31.0655 6.13069 31.107 6.15759C31.1404 6.17796 31.1819 6.20487 31.2226 6.21868C31.2626 6.23905 31.304 6.24559 31.352 6.25941C31.392 6.26669 31.4393 6.27323 31.4808 6.27323C31.5693 6.27218 31.6568 6.25364 31.7382 6.21868C31.8224 6.18774 31.8991 6.13914 31.963 6.07614C32.024 6.00778 32.072 5.93359 32.1055 5.85141C32.1403 5.76998 32.1589 5.68252 32.16 5.59396C32.16 5.41342 32.0892 5.24009 31.963 5.11105C31.8993 5.04614 31.8228 4.99534 31.7382 4.96196ZM34.7891 5.3285C34.7743 5.28729 34.7537 5.24837 34.728 5.21287C34.7011 5.17941 34.6742 5.14523 34.6408 5.11105C34.6129 5.07674 34.5779 5.04893 34.5382 5.02959C34.504 5.00269 34.4626 4.98232 34.4219 4.96196C34.3801 4.94662 34.337 4.93518 34.2931 4.92778C34.1636 4.90144 34.0292 4.91331 33.9062 4.96196C33.8219 4.99543 33.7456 5.04623 33.6822 5.11105C33.6546 5.14523 33.6211 5.17941 33.6 5.21287C33.5748 5.25005 33.5522 5.28893 33.5324 5.32923C33.5186 5.3765 33.5055 5.4165 33.4982 5.45796C33.4851 5.50523 33.4851 5.54596 33.4851 5.59396C33.4851 5.77069 33.5528 5.94668 33.6815 6.06959C33.7433 6.13672 33.8204 6.18788 33.9062 6.21868C33.9878 6.25373 34.0756 6.27227 34.1644 6.27323C34.2051 6.27323 34.2524 6.26596 34.2931 6.25941C34.3383 6.25332 34.3821 6.23955 34.4226 6.21868C34.4626 6.20487 34.504 6.17796 34.5382 6.15759C34.5766 6.13376 34.6109 6.10407 34.64 6.06959C34.7041 6.00795 34.7551 5.9341 34.79 5.8524C34.825 5.77071 34.8433 5.68283 34.8437 5.59396C34.8437 5.54596 34.8371 5.50523 34.8299 5.45796C34.8217 5.41328 34.808 5.36979 34.7891 5.3285ZM24.0371 21.3271C19.0197 21.3271 14.9375 25.41 14.9375 30.4281C14.9375 35.4456 19.0197 39.5278 24.0371 39.5278C29.0553 39.5278 33.1382 35.4456 33.1382 30.4281C33.1382 25.41 29.0553 21.3271 24.0371 21.3271ZM24.0371 38.1692C19.7688 38.1692 16.296 34.6965 16.296 30.4281C16.296 26.159 19.7688 22.6863 24.0371 22.6863C28.3062 22.6863 31.779 26.159 31.779 30.4281C31.779 34.6965 28.3062 38.1692 24.0371 38.1692Z" fill="#00828E"/>
<path d="M20.3758 27.395C19.78 27.3955 19.2087 27.6325 18.7874 28.0538C18.3661 28.4751 18.1291 29.0464 18.1286 29.6422V32.6691C18.1286 32.8495 18.2002 33.0225 18.3277 33.15C18.4553 33.2775 18.6282 33.3491 18.8086 33.3491C18.9889 33.3491 19.1619 33.2775 19.2894 33.15C19.4169 33.0225 19.4886 32.8495 19.4886 32.6691V31.6095H21.2638V32.6691C21.2638 32.8494 21.3354 33.0223 21.4629 33.1497C21.5904 33.2772 21.7632 33.3488 21.9435 33.3488C22.1237 33.3488 22.2966 33.2772 22.4241 33.1497C22.5515 33.0223 22.6231 32.8494 22.6231 32.6691V29.6422C22.6225 29.0464 22.3856 28.4751 21.9643 28.0538C21.5429 27.6325 20.9717 27.3955 20.3758 27.395ZM19.4886 30.2502V29.6422C19.4886 29.1528 19.8864 28.7542 20.3758 28.7542C20.8653 28.7542 21.2638 29.1528 21.2638 29.6422V30.2502H19.4886ZM25.8035 27.395H24.138C24.0488 27.395 23.9604 27.4126 23.8779 27.4467C23.7955 27.4809 23.7205 27.531 23.6575 27.5942C23.5944 27.6573 23.5443 27.7323 23.5103 27.8148C23.4762 27.8973 23.4587 27.9857 23.4588 28.075V32.6691C23.4588 32.8493 23.5303 33.0221 23.6577 33.1495C23.7851 33.2769 23.9579 33.3484 24.138 33.3484C24.3182 33.3484 24.491 33.2769 24.6183 33.1495C24.7457 33.0221 24.8173 32.8493 24.8173 32.6691V31.3208H25.8049C26.3252 31.32 26.824 31.1129 27.1918 30.745C27.5596 30.377 27.7665 29.8782 27.7671 29.3579C27.7665 28.8376 27.5596 28.3388 27.1918 27.9708C26.824 27.6028 26.3252 27.3957 25.8049 27.395H25.8035ZM25.8035 29.9622H24.8166V28.7542H25.8042C25.9643 28.7542 26.1178 28.8178 26.231 28.931C26.3442 29.0442 26.4078 29.1978 26.4078 29.3579C26.4078 29.518 26.3442 29.6715 26.231 29.7847C26.1178 29.8979 25.9643 29.9615 25.8042 29.9615L25.8035 29.9622ZM28.7562 28.075V32.6691C28.7562 32.8494 28.8278 33.0223 28.9553 33.1497C29.0827 33.2772 29.2556 33.3488 29.4358 33.3488C29.6161 33.3488 29.789 33.2772 29.9164 33.1497C30.0439 33.0223 30.1155 32.8494 30.1155 32.6691V28.075C30.1155 27.8947 30.0439 27.7218 29.9164 27.5944C29.789 27.4669 29.6161 27.3953 29.4358 27.3953C29.2556 27.3953 29.0827 27.4669 28.9553 27.5944C28.8278 27.7218 28.7562 27.8947 28.7562 28.075ZM5.01948 13.3324H10.3831C10.5634 13.3324 10.7362 13.2608 10.8637 13.1334C10.9911 13.0059 11.0628 12.833 11.0628 12.6528C11.0628 12.4725 10.9911 12.2997 10.8637 12.1722C10.7362 12.0447 10.5634 11.9731 10.3831 11.9731H5.01948C4.83923 11.9731 4.66636 12.0447 4.5389 12.1722C4.41145 12.2997 4.33984 12.4725 4.33984 12.6528C4.33984 12.833 4.41145 13.0059 4.5389 13.1334C4.66636 13.2608 4.83923 13.3324 5.01948 13.3324ZM11.0624 15.6997C11.0624 15.5195 10.9908 15.3468 10.8634 15.2194C10.736 15.092 10.5633 15.0204 10.3831 15.0204H5.01948C4.93028 15.0204 4.84195 15.038 4.75953 15.0721C4.67712 15.1063 4.60224 15.1563 4.53916 15.2194C4.47609 15.2824 4.42605 15.3573 4.39191 15.4397C4.35778 15.5222 4.34021 15.6105 4.34021 15.6997C4.34021 15.7889 4.35778 15.8772 4.39191 15.9596C4.42605 16.042 4.47609 16.1169 4.53916 16.18C4.60224 16.2431 4.67712 16.2931 4.75953 16.3273C4.84195 16.3614 4.93028 16.379 5.01948 16.379H10.3831C10.5633 16.379 10.736 16.3074 10.8634 16.18C10.9908 16.0526 11.0624 15.8798 11.0624 15.6997ZM37.1177 13.3324H42.4813C42.6616 13.3324 42.8344 13.2608 42.9619 13.1334C43.0893 13.0059 43.1609 12.833 43.1609 12.6528C43.1609 12.4725 43.0893 12.2997 42.9619 12.1722C42.8344 12.0447 42.6616 11.9731 42.4813 11.9731H37.1177C36.9374 11.9731 36.7645 12.0447 36.6371 12.1722C36.5096 12.2997 36.438 12.4725 36.438 12.6528C36.438 12.833 36.5096 13.0059 36.6371 13.1334C36.7645 13.2608 36.9374 13.3324 37.1177 13.3324ZM37.1177 16.379H42.4813C42.5705 16.379 42.6588 16.3614 42.7412 16.3273C42.8237 16.2931 42.8985 16.2431 42.9616 16.18C43.0247 16.1169 43.0747 16.042 43.1089 15.9596C43.143 15.8772 43.1606 15.7889 43.1606 15.6997C43.1606 15.6105 43.143 15.5222 43.1089 15.4397C43.0747 15.3573 43.0247 15.2824 42.9616 15.2194C42.8985 15.1563 42.8237 15.1063 42.7412 15.0721C42.6588 15.038 42.5705 15.0204 42.4813 15.0204H37.1177C37.0285 15.0204 36.9401 15.038 36.8577 15.0721C36.7753 15.1063 36.7004 15.1563 36.6373 15.2194C36.5743 15.2824 36.5242 15.3573 36.4901 15.4397C36.456 15.5222 36.4384 15.6105 36.4384 15.6997C36.4384 15.7889 36.456 15.8772 36.4901 15.9596C36.5242 16.042 36.5743 16.1169 36.6373 16.18C36.7004 16.2431 36.7753 16.2931 36.8577 16.3273C36.9401 16.3614 37.0285 16.379 37.1177 16.379Z" fill="#00828E"/>
</svg>
