<svg width="48" height="48" viewBox="0 0 48 48" fill="none" xmlns="http://www.w3.org/2000/svg">
<path d="M47.1244 35.3438C46.6172 33.4492 44.6475 32.2979 42.6403 32.7188L28.6509 35.6888C28.9262 34.9321 28.9267 34.1028 28.6526 33.3457C28.3784 32.5886 27.8469 31.952 27.1509 31.547L19.0416 26.8641C18.7161 26.6609 18.4104 26.4277 18.1284 26.1676C17.4159 25.5516 16.5291 24.7857 14.8762 24.6095C13.3059 24.4426 11.2622 24.811 8.50125 25.7663C8.40909 25.1809 8.11111 24.6475 7.66088 24.262C7.21064 23.8766 6.63769 23.6643 6.045 23.6635H3.23625C2.57708 23.6643 1.94513 23.9265 1.47903 24.3926C1.01293 24.8587 0.750744 25.4906 0.75 26.1498V39.9695C0.750744 40.6286 1.01293 41.2606 1.47903 41.7267C1.94513 42.1928 2.57708 42.455 3.23625 42.4557H6.03656C6.68881 42.4548 7.31465 42.1979 7.77943 41.7403C8.24422 41.2827 8.51082 40.661 8.52187 40.0088C10.7587 39.6948 13.6003 41.3166 16.3547 42.8898C18.7284 44.2454 20.9916 45.5382 22.8825 45.5382C23.2382 45.5411 23.5923 45.4896 23.9325 45.3854L44.5125 39.871C45.4589 39.6166 46.2657 38.9969 46.7554 38.148C47.2452 37.2991 47.3779 36.2905 47.1244 35.3438ZM6.03656 40.9557H3.23625C2.97476 40.9555 2.72404 40.8515 2.53914 40.6666C2.35424 40.4817 2.25025 40.231 2.25 39.9695V26.1498C2.25025 25.8883 2.35424 25.6376 2.53914 25.4527C2.72404 25.2678 2.97476 25.1638 3.23625 25.1635H6.03656C6.29806 25.1638 6.54877 25.2678 6.73367 25.4527C6.91858 25.6376 7.02256 25.8883 7.02281 26.1498V39.9695C7.02256 40.231 6.91858 40.4817 6.73367 40.6666C6.54877 40.8515 6.29806 40.9555 6.03656 40.9557ZM44.1244 38.4245L23.5312 43.9407L23.4966 43.951C22.05 44.4132 19.5337 42.977 17.1009 41.5876C14.2012 39.9301 11.2125 38.2257 8.52562 38.4938V27.346C14.6522 25.1485 15.9197 26.2426 17.1506 27.302C17.5031 27.6255 17.8862 27.914 18.2944 28.1635L26.4037 32.8454C26.6227 32.9725 26.8145 33.1414 26.9682 33.3426C27.1218 33.5437 27.2344 33.7732 27.2994 34.0179C27.3644 34.2625 27.3805 34.5176 27.3469 34.7685C27.3133 35.0194 27.2306 35.2613 27.1036 35.4802C26.9765 35.6992 26.8076 35.891 26.6064 36.0447C26.4053 36.1983 26.1758 36.3109 25.9311 36.3759C25.6864 36.4408 25.4314 36.457 25.1805 36.4234C24.9295 36.3898 24.6877 36.3071 24.4687 36.1801L17.6981 32.2717C17.5263 32.1784 17.3249 32.1558 17.1367 32.2089C16.9486 32.2619 16.7886 32.3863 16.6908 32.5556C16.593 32.7249 16.5652 32.9257 16.6133 33.1152C16.6613 33.3047 16.7815 33.4679 16.9481 33.5701L23.7187 37.4795C24.2376 37.7798 24.8265 37.9379 25.4259 37.9379C25.9639 37.9371 26.4943 37.8106 26.9747 37.5685C27.01 37.5661 27.045 37.5614 27.0797 37.5545L42.9478 34.1945C44.1956 33.9301 45.3666 34.5929 45.6731 35.7357C45.8228 36.2972 45.7438 36.8952 45.4535 37.3986C45.1632 37.902 44.6853 38.2699 44.1244 38.4216V38.4245ZM5.88656 27.872C5.8873 28.1195 5.81456 28.3617 5.67755 28.5679C5.54054 28.7741 5.34543 28.9349 5.11692 29.0301C4.88841 29.1254 4.63678 29.1506 4.39391 29.1027C4.15104 29.0548 3.92786 28.9359 3.75261 28.761C3.57737 28.5862 3.45796 28.3633 3.40951 28.1205C3.36106 27.8777 3.38574 27.6261 3.48042 27.3973C3.57511 27.1686 3.73555 26.9731 3.94142 26.8357C4.14729 26.6982 4.38933 26.6249 4.63687 26.6251C4.9676 26.6258 5.28461 26.7573 5.51873 26.9909C5.75285 27.2245 5.88508 27.5412 5.88656 27.872ZM20.6934 19.6323H21.9628C22.2144 20.5365 22.5751 21.4066 23.0372 22.2235L22.14 23.1216C21.9046 23.354 21.7619 23.6641 21.7386 23.994C21.7153 24.3239 21.813 24.6511 22.0134 24.9141C22.8069 25.967 23.7438 26.9036 24.7969 27.6966C25.0597 27.8976 25.3868 27.9957 25.7169 27.9726C26.0469 27.9494 26.3571 27.8066 26.5894 27.571L27.4875 26.6738C28.3043 27.136 29.174 27.4974 30.0778 27.7501V29.0195C30.0758 29.3502 30.1945 29.6704 30.4116 29.9199C30.6287 30.1695 30.9293 30.3313 31.2572 30.3751C32.5632 30.559 33.8886 30.559 35.1947 30.3751C35.523 30.3315 35.8242 30.1695 36.0415 29.9195C36.2588 29.6695 36.3774 29.3488 36.375 29.0176V27.7501C37.2791 27.4982 38.1492 27.1374 38.9662 26.6757L39.8634 27.5729C40.0957 27.8085 40.4059 27.9513 40.7359 27.9744C41.066 27.9976 41.3931 27.8995 41.6559 27.6985C42.7087 26.905 43.645 25.9677 44.4375 24.9141C44.638 24.6512 44.7359 24.3241 44.7128 23.9942C44.6897 23.6643 44.5471 23.3541 44.3119 23.1216L43.4137 22.2235C43.8759 21.407 44.2366 20.5371 44.4881 19.6332H45.7584C46.0893 19.6354 46.4095 19.5168 46.6591 19.2997C46.9087 19.0825 47.0705 18.7818 47.1141 18.4538C47.298 17.1478 47.298 15.8224 47.1141 14.5163C47.0702 14.1886 46.9084 13.888 46.6588 13.6711C46.4092 13.4541 46.0891 13.3357 45.7584 13.3379H44.4872C44.2352 12.4337 43.8741 11.5636 43.4119 10.7466L44.31 9.84946C44.544 9.61757 44.686 9.30861 44.7094 8.97997C44.7329 8.65134 44.6362 8.32536 44.4375 8.06259C43.6446 7.00903 42.7076 6.07207 41.6541 5.27915C41.3912 5.07822 41.0641 4.98012 40.7341 5.00325C40.404 5.02638 40.0938 5.16915 39.8616 5.40477L38.9644 6.3029C38.1481 5.83972 37.2786 5.47738 36.375 5.22384V3.95446C36.3773 3.62368 36.2588 3.30342 36.0419 3.0537C35.825 2.80398 35.5244 2.64192 35.1966 2.5979C33.8904 2.41593 32.5653 2.41593 31.2591 2.5979C30.9313 2.64211 30.6309 2.80422 30.414 3.0539C30.1971 3.30358 30.0786 3.62373 30.0806 3.95446V5.22384C29.1759 5.47583 28.3051 5.83692 27.4875 6.29915L26.5894 5.40102C26.3569 5.16576 26.0467 5.02324 25.7168 5.00012C25.3869 4.977 25.0599 5.07486 24.7969 5.2754C23.7431 6.06947 22.8061 7.00771 22.0134 8.06259C21.8128 8.32561 21.715 8.65276 21.7383 8.98273C21.7616 9.31271 21.9044 9.62286 22.14 9.85509L23.0372 10.7523C22.5749 11.5691 22.2142 12.4393 21.9628 13.3435H20.6934C20.3627 13.3413 20.0424 13.4597 19.7927 13.6766C19.543 13.8936 19.3809 14.1941 19.3369 14.522C19.1529 15.828 19.1529 17.1534 19.3369 18.4595C19.382 18.7864 19.5445 19.0857 19.7941 19.3015C20.0438 19.5173 20.3634 19.6349 20.6934 19.6323ZM20.8069 14.8398H22.5469C22.7175 14.8398 22.883 14.7817 23.0161 14.675C23.1492 14.5683 23.242 14.4194 23.2791 14.2529C23.5346 13.1107 23.9863 12.0214 24.6141 11.0335C24.7053 10.8896 24.7448 10.7189 24.7261 10.5495C24.7073 10.3801 24.6314 10.2222 24.5109 10.1016L23.2809 8.87071C23.9516 7.99563 24.7346 7.21266 25.6097 6.54196L26.8397 7.7729C26.9603 7.89363 27.1184 7.96964 27.288 7.98839C27.4576 8.00714 27.6285 7.9675 27.7725 7.87602C28.7604 7.24829 29.8496 6.7966 30.9919 6.54102C31.1576 6.50388 31.3058 6.41159 31.4122 6.27927C31.5187 6.14694 31.577 5.98241 31.5778 5.81259V4.0679C32.671 3.9254 33.7781 3.9254 34.8712 4.0679V5.81259C34.8712 5.98318 34.9293 6.14869 35.036 6.2818C35.1427 6.41491 35.2916 6.50767 35.4581 6.54477C36.5998 6.79885 37.6887 7.24896 38.6766 7.87509C38.8206 7.96657 38.9915 8.0062 39.1611 7.98746C39.3307 7.96871 39.4888 7.89269 39.6094 7.77196L40.8403 6.54102C41.7149 7.212 42.4975 7.99494 43.1681 8.86977L41.9381 10.1007C41.8176 10.2212 41.7417 10.3792 41.723 10.5485C41.7043 10.7179 41.7438 10.8887 41.835 11.0326C42.4628 12.0198 42.9145 13.1084 43.17 14.2501C43.2073 14.4164 43.3001 14.5651 43.4332 14.6716C43.5663 14.7781 43.7317 14.8361 43.9022 14.836H45.6422C45.7859 15.9291 45.7859 17.0364 45.6422 18.1295H43.9012C43.7309 18.1296 43.5658 18.1877 43.4329 18.2942C43.3 18.4007 43.2073 18.5492 43.17 18.7154C42.9147 19.8586 42.463 20.9488 41.835 21.9376C41.7438 22.0815 41.7043 22.2522 41.723 22.4216C41.7417 22.591 41.8176 22.749 41.9381 22.8695L43.1691 24.1004C42.4979 24.975 41.7149 25.7579 40.8403 26.4291L39.6094 25.1991C39.4888 25.0788 39.3307 25.0031 39.1614 24.9845C38.992 24.9659 38.8213 25.0056 38.6775 25.097C37.6894 25.7249 36.5998 26.1766 35.4572 26.432C35.291 26.4692 35.1425 26.5619 35.036 26.6948C34.9295 26.8277 34.8714 26.9929 34.8712 27.1632V28.9042C33.7781 29.0466 32.671 29.0466 31.5778 28.9042V27.1632C31.5779 26.9927 31.5199 26.8273 31.4134 26.6942C31.3069 26.5612 31.1582 26.4683 30.9919 26.431C29.8493 26.1765 28.7599 25.7247 27.7725 25.096C27.6285 25.0045 27.4576 24.9649 27.288 24.9837C27.1184 25.0024 26.9603 25.0784 26.8397 25.1991L25.6097 26.4301C24.7346 25.7594 23.9516 24.9764 23.2809 24.1013L24.5109 22.8751C24.6314 22.7546 24.7073 22.5966 24.7261 22.4272C24.7448 22.2579 24.7053 22.0871 24.6141 21.9432C23.9861 20.9554 23.5344 19.8661 23.2791 18.7238C23.242 18.5573 23.1492 18.4084 23.0161 18.3017C22.883 18.1951 22.7175 18.1369 22.5469 18.137H20.8069C20.6631 17.0442 20.6631 15.9373 20.8069 14.8445V14.8398ZM33.225 24.0001C34.7104 24.0001 36.1624 23.5596 37.3975 22.7344C38.6326 21.9091 39.5952 20.7362 40.1636 19.3638C40.7321 17.9915 40.8808 16.4814 40.591 15.0246C40.3012 13.5677 39.5859 12.2295 38.5356 11.1792C37.4853 10.1288 36.147 9.41356 34.6902 9.12377C33.2333 8.83398 31.7233 8.98271 30.3509 9.55115C28.9786 10.1196 27.8056 11.0822 26.9804 12.3173C26.1552 13.5523 25.7147 15.0044 25.7147 16.4898C25.7169 18.4809 26.5089 20.3899 27.9169 21.7979C29.3248 23.2059 31.2338 23.9979 33.225 24.0001ZM33.225 10.4795C34.4137 10.4795 35.5758 10.832 36.5641 11.4924C37.5525 12.1528 38.3229 13.0915 38.7778 14.1897C39.2327 15.288 39.3517 16.4964 39.1198 17.6623C38.8879 18.8282 38.3155 19.8991 37.4749 20.7397C36.6344 21.5803 35.5634 22.1527 34.3975 22.3846C33.2317 22.6165 32.0232 22.4975 30.9249 22.0426C29.8267 21.5877 28.888 20.8173 28.2276 19.8289C27.5672 18.8405 27.2147 17.6785 27.2147 16.4898C27.2154 14.8956 27.8488 13.3669 28.9757 12.2393C30.1025 11.1118 31.6308 10.4774 33.225 10.4757V10.4795ZM30.1059 17.1995C30.0363 17.1298 29.9811 17.0471 29.9434 16.956C29.9058 16.865 29.8864 16.7675 29.8865 16.669C29.8865 16.5705 29.906 16.4729 29.9437 16.382C29.9814 16.291 30.0367 16.2083 30.1064 16.1387C30.1761 16.0691 30.2588 16.0138 30.3498 15.9762C30.4408 15.9385 30.5384 15.9192 30.6369 15.9192C30.7354 15.9193 30.8329 15.9387 30.9239 15.9764C31.0149 16.0142 31.0976 16.0695 31.1672 16.1391L32.3719 17.3438L35.25 14.041C35.3849 13.9079 35.5652 13.8307 35.7547 13.8251C35.9442 13.8195 36.1287 13.8859 36.2713 14.0108C36.4138 14.1358 36.5037 14.3101 36.523 14.4987C36.5422 14.6872 36.4894 14.8761 36.375 15.0273L32.9719 18.931C32.9043 19.0086 32.8215 19.0714 32.7286 19.1156C32.6357 19.1598 32.5347 19.1844 32.4319 19.1879H32.4066C32.308 19.188 32.2105 19.1686 32.1194 19.131C32.0284 19.0934 31.9456 19.0381 31.8759 18.9685L30.1059 17.1995Z" fill="#00828E"/>
</svg>
